<svg version="1.1" id="Layer_1" xmlns="http://www.w3.org/2000/svg" xmlns:xlink="http://www.w3.org/1999/xlink" x="0px" y="0px"
	 viewBox="0 0 71.3 73" style="enable-background:new 0 0 71.3 73;" xml:space="preserve">
<g>
	<g>
		<g>
			<g>
				<g>
					<path d="M2.5,6.8c0-0.3-0.4-0.2-0.5-0.2C2.1,7,2.6,6.8,2.5,6.8z"/>
					<polygon points="3.4,11.4 3.3,11.4 3.7,12 					"/>
					<path d="M3.4,15.8c0.7-0.4-0.1-1.6,0.1-2.4l0.2-0.1L3.2,13C3.2,13.9,3.6,15.1,3.4,15.8z"/>
					<path d="M1.9,18.1C2.2,18,2.1,18.6,2,17.6c0,0.1,0,0.1-0.1,0.1C1.9,17.8,1.9,17.9,1.9,18.1z"/>
					<path d="M1.9,17.7C1.9,17.2,1.7,18,1.9,17.7L1.9,17.7z"/>
					<path d="M2.1,19.8l-0.2-0.6c-0.2,0.1-0.2,0.7-0.3,0.5C1.6,20.3,1.8,20.1,2.1,19.8z"/>
					<path d="M2.6,20.4L2.5,20C2.4,20.1,2.4,20.2,2.6,20.4z"/>
					<path d="M2.3,19.4L2.5,20c0.1-0.1,0.3-0.1-0.1-0.3C2.6,19.8,2.4,19.7,2.3,19.4z"/>
					<path d="M2.4,19c0.2-0.3,0.3-0.8,0.5-0.2C2.8,17.7,2.3,17.8,2.4,19z"/>
					<path d="M4.2,16l0.2-0.5l-0.2-0.4C4.3,15.4,3.9,16,4.2,16z"/>
					<path d="M1.7,23.5c0.2,0,0.4-0.2,0.6-0.2l-0.2-0.4C2,23.1,1.9,23.5,1.7,23.5z"/>
					<path d="M2.3,23.3L2.5,24C2.6,23.4,2.5,23.3,2.3,23.3z"/>
					<polygon points="3.4,20.5 2.8,19.4 3.4,20.7 					"/>
					<polygon points="1.7,26.1 1.3,25.7 1.8,26.4 					"/>
					<path d="M1.7,27.8c-0.3-0.3-0.5,0.4-0.7,0.1c0.1,0.5,0.3,0.9,0.5,1.2C1.5,28.7,1.5,28.3,1.7,27.8z"/>
					<path d="M1.9,29.7c-0.1-0.2-0.2-0.4-0.3-0.6C1.7,29.3,1.8,29.5,1.9,29.7z"/>
					<path d="M2.5,25.1c-0.1,0.1-0.3,0.2-0.4,0.5l0.4-0.3C2.5,25.3,2.5,25.2,2.5,25.1z"/>
					<path d="M2.5,25.4L2.5,25.4c0,0.3,0,0.5,0,0.6C2.4,25.9,2.5,25.7,2.5,25.4z"/>
					<path d="M2.5,25C2.5,25.1,2.5,25.1,2.5,25C2.5,25.1,2.5,25.1,2.5,25z"/>
					<path d="M3,22.2c0.2,0.4,0.5,1.2,0.9,0.4C3.6,22.3,3.3,22.8,3,22.2z"/>
					<path d="M3,24.7L3.1,24c-0.1,0-0.3,0.1-0.4-0.1L3,24.7z"/>
					<polygon points="3.1,25.1 3,24.7 3,25 					"/>
					<path d="M2.3,28.5c0.2,0.3,0.2,0.6,0.2,1c0.1-0.4,0.1-0.8,0.1-1.2C2.5,28.2,2.3,28,2.3,28.5z"/>
					<path d="M2.4,26.9C2.4,27,2.4,27,2.4,26.9C2.5,27,2.5,26.9,2.4,26.9z"/>
					<polygon points="2.5,33.2 2.6,33.1 2.5,33.1 					"/>
					<path d="M2.8,28.2c0.1-0.3,0-0.5-0.2-0.7C2.6,27.7,2.7,28,2.8,28.2C2.7,28.3,2.8,28.3,2.8,28.2z"/>
					<path d="M2.1,30.7c0.1-0.2,0.2-0.3,0.2-0.5C2.2,30.3,2,30.7,2.1,30.7z"/>
					<path d="M2.3,27.1C2.3,27.1,2.3,27.1,2.3,27.1C2.2,27.2,2.3,27.2,2.3,27.1z"/>
					<path d="M2.3,27.1c0.1,0.2,0.2,0.3,0.3,0.4c0-0.2-0.1-0.4-0.1-0.5C2.4,27.1,2.4,27.1,2.3,27.1z"/>
					<path d="M5.3,34.3c-0.4-0.1-0.8-0.9-0.3-1.5c-0.3-0.7-1.6-0.2-2.3,0.4c0.2,0,0.3,0,0.6,0.7c0.2-0.2,0.5-1.6,0.9-1
						c0.2,0.9-0.1,0.8-0.3,1.2c0.5-0.4,0.7,1.2,1.4,1l-0.3-0.8C5,34.3,5.2,34.6,5.3,34.3z"/>
					<path d="M2.7,31.8l0-0.3c-0.1,0.3-0.2,0.6-0.5,1c0.2,0.5,0.3,0.6,0.5,0.6L2.7,31.8L2.7,31.8z"/>
					<path d="M2.6,30.2c0.4,0.2,0.6,0.9,1.1,0.5c0-0.8-0.4-0.6-0.5-1.1C3.3,31,2.9,29.2,2.6,30.2c0-0.3,0-0.5-0.1-0.7
						c-0.1,0.2-0.1,0.5-0.2,0.7l0,0l0,0l0,0c0.1-0.1,0.1-0.1,0.1,0c0,0,0,0,0,0C2.5,30.2,2.6,30.2,2.6,30.2
						c-0.1,0.4-0.1,0.1-0.2-0.1c0,0,0,0-0.1,0l0,0l0.2,1.4C2.7,31.2,2.7,30.9,2.6,30.2z"/>
					<path d="M4.8,23.4c0,0-0.1,0-0.1,0C4.7,23.5,4.8,23.5,4.8,23.4z"/>
					<path d="M4.5,23.9c-0.1-0.1-0.2-0.2-0.2-0.5c0.1-0.3,0.2,0,0.3,0c-0.1-0.2-0.3-0.7-0.5-0.1l0.1,0.1c-0.1,0.6-0.7,1.3-0.7,1.2
						C3.9,24.4,4.1,24.3,4.5,23.9z"/>
					<path d="M3.7,27.1l0.2,1.1l0.4-0.6l-0.2,0C4.1,27.1,3.8,27.2,3.7,27.1z"/>
					<polygon points="2.3,33.3 1.9,33.2 2.5,33.8 					"/>
					<polygon points="2.4,34.8 2,34.8 2.2,35.1 					"/>
					<path d="M50.7,39.4l0.2-0.3C50.9,39.2,50.8,39.3,50.7,39.4z"/>
					<path d="M48.6,40.4l0,0.2C48.7,40.5,48.7,40.4,48.6,40.4z"/>
					<path d="M10.6,65.5c0.4,0,0.9,0,1.3,0c0.3,0,0.4,0,0.3-0.2l-0.3-0.3C11.4,65.2,10.9,65.4,10.6,65.5z"/>
					<path d="M32,51.6c-0.1,0-0.1,0-0.2-0.1c0,0.2-0.1,0.4-0.1,0.5C31.8,51.9,31.9,51.7,32,51.6z"/>
					<path d="M31.4,49.8l0.7,0C32,49.7,31.7,49.8,31.4,49.8z"/>
					<path d="M57.5,35.4c-0.3,0-0.6,0-0.9,0C56.5,35.4,57,35.4,57.5,35.4z"/>
					<path d="M2.5,50c-0.2,0.4-0.2,0.8-0.3,1C2.5,50.5,2.9,50.1,2.5,50z"/>
					<path d="M52,43.9c0.1-0.2,0.2-0.3,0.1-0.4C52,43.7,51.9,43.8,52,43.9z"/>
					<path d="M2.3,52.2c0-0.1,0.1-0.1,0.1-0.2c-0.1-0.3-0.1-0.6-0.1-1C2.1,51.4,2,51.8,2.3,52.2z"/>
					<path d="M20.1,16.7C20,16.6,20,16.6,20.1,16.7C20,16.6,20,16.6,20.1,16.7z"/>
					<path d="M9.4,6.6c0.1,0,0.3,0.1,0.5,0.2C9.9,6.8,9.7,6.7,9.4,6.6z"/>
					<path d="M2.2,40.8C2.2,40.4,2.1,40.7,2.2,40.8L2.2,40.8z"/>
					<path d="M3.9,39.2c0,0.1,0.1,0.1,0.2,0.1C4,39.3,3.9,39.3,3.9,39.2z"/>
					<path d="M5,55.4L5,55.4C5.1,55.3,5,55.3,5,55.4z"/>
					<path d="M2.4,40.3c-0.1,0.1-0.1,0.3-0.1,0.4C2.3,40.6,2.3,40.5,2.4,40.3z"/>
					<path d="M2.2,40.4c0-0.1,0-0.2,0-0.3C2.2,40,2.1,40.1,2.2,40.4z"/>
					<path d="M2.2,41.2c0-0.2,0-0.3,0-0.5c0,0.1-0.1,0.1-0.1,0.1C2.2,40.9,2.2,41,2.2,41.2z"/>
					<path d="M43.7,26.9C43.7,26.8,43.7,26.8,43.7,26.9C43.3,26.8,43.4,26.9,43.7,26.9z"/>
					<path d="M16.2,57.5C16.2,57.5,16.2,57.5,16.2,57.5C16.2,57.5,16.2,57.5,16.2,57.5L16.2,57.5z"/>
					<path d="M17.1,56.7c-0.2,0.7-0.5,0.8-0.8,0.8l0.9,0.9L17.1,56.7z"/>
					<path d="M55.8,36.6l-0.9,0c0.1-0.3,0.3-0.4,0.4-0.6c0.1-0.1,0.1-0.1,0.2-0.2c0,0,0-0.1,0-0.1c0-0.1-0.1-0.1-0.2-0.4
						c0.5,1.3-2.7,1.5-2.1,2.8l-0.6,0c0.1-0.1,0.1-0.1,0.3-0.2c-1.2-0.1-0.2,1.2-1.5,1.6c-0.5,0.1-0.8,0.1-0.6-0.2L50,40.1
						c-0.3,0.1-0.3-0.1,0-0.2l-1.3,0.8l0,0c-0.1,0.3-0.4,0.8-0.5,1c-0.4,0,0.1-0.2-0.1-0.3l-0.6,0.7c-0.5-0.2,0-0.8,0.6-1
						c-1.3-0.8-0.5,0.6-2.4,0.7l0.6-0.5c-0.8-0.4-1.3,0.1-2.3,0.1c0.3,0.1,2.2,0.2,1.5,1c-0.3,0-0.6,0.1-0.9,0.6
						c-0.2-0.4-0.6-0.1-1.1,0.2l-0.3-0.6c-0.5,0.5-0.3,0.7-0.5,1.2c-0.7,0.3-1-0.1-1.4-0.4c-1.1,0.5,1.1,0.3-0.1,1.1
						c-1,0.2-1.5,0.8-2.4,1.7c-0.7,0.1-0.1-0.4-0.4-0.5L38,46.3c-0.1,0.1-0.2-0.1-0.2-0.2c-0.4,0.4,0.3,0.6-0.4,1.1
						c0.1,0.7-1.9-0.2-2.5,1c-0.3,0-0.1-0.4-0.3-0.6c-1,1.1-0.9,0.9-1.6,2l-1,0.1c0.8,0.1,0.3,1-0.2,1.8c0.3,0.1,0.6,0.2,0.8,0.2
						l-1,0.9c-0.2,0-0.2-0.3-0.1-0.6c-0.1,0.1-0.1,0.2-0.1,0.2c-0.5,0-0.5-0.4-0.3-0.9c0.2,0,0.4,0.1,0.6,0.1c0.1-0.5,0.2-1-0.1-1.3
						c0,0.1-0.2,0.2-0.3,0.3c0-0.1,0-0.2,0-0.3c-0.1,0-0.1,0.1-0.2,0.4l-0.6-0.5l0.1,0.3L29,50.8c-0.7,1.2-1.2,2.6-2.7,3.7
						c0.2-0.7-0.3-0.8-0.6-1.4c0.8,0.3,1.2-0.9,2.1-1.2c-0.5,0.2-0.5-0.1-0.5-0.3l-1.3,1.3c-0.2-0.5-0.5-0.2-1-0.1
						c0.8,0.7-0.8,1.2-1.3,1.8c-0.2-0.3-0.2-0.7,0.6-1c-1.2-0.2-0.6,1.6-1.7,1.5c0.2-0.1,0.3-0.1,0.3-0.3c-0.3,0.5-1.5,0.8-1.4,0.4
						l0.2-0.1c-1.3,0.5-3.8,1.9-3.6,2.8c-0.1-0.1-0.3-1-0.3-1.2L17,60.3c-0.1-0.7-1.7-1.9-0.8-2.8c-0.3,0.1-0.8,0.1-1.3,0.7
						c0.2,0,1,0.7,0.7,0.9c-1.1-0.3-0.7-0.1-2-0.3c0.4,0,0.6,1.2,0.1,1.4c0-0.2-0.6-1-0.4-1.2l-0.7,1.6c0.2-0.3-0.4-0.9-0.8-1
						c0.2,0.1-1,0.5-1.3,0.8l0.6,0c-0.7,0.3-0.9,0.8-1,1.3c-0.1,0.5-0.2,1.1-0.9,1.4c0.2-0.3,0-1.6-0.4-1.6
						c-0.1,0.4-0.2,1.2-0.8,2.3c-0.5,1-1.5,2.3-2.5,3c0-0.1-0.1-0.2-0.1-0.3l-1.5,1.2c0.8-0.9,2-2.3,2.8-3.4C7.8,63,8.3,62,8.6,61.5
						c-0.2-0.2,0-0.4-0.3-0.2c0-0.4,0.3-0.7,0.3-0.7c-0.2,0-0.3,0-0.4,0c-0.4,0.9-0.9,1.2-1.5,2.1c0.6-0.6,1-1,1.4-1.5
						c-0.1,0.4-0.4,1.1-0.9,1.7c-0.5,0.6-1.1,1.3-1.7,1.6c0-0.1,0-0.2,0-0.3c0.1-0.4,0.4-0.7,0.7-1.1c0.3-0.4,0.6-0.8,0.7-1
						c-0.2,0.3-0.4,0-0.3-0.3c0.1,0,0.2-0.1,0.4-0.2c0.1-0.3-0.1-0.2-0.3-0.2c-0.2,0-0.3-0.1,0-0.6c0-0.1,0.2-0.4,0.4-0.6
						c0.2-0.2,0.3-0.3,0.1-0.2c-0.8,0.6-3.1,2.6-3.7,2.5c0-0.1,0.2-0.8,0.4-1.4c0.2-0.7,0.5-1.3,0.7-1.5c0.3-0.3,0.7-0.1,1,0
						c0.3,0.1,0.7,0.2,0.9,0c-0.2,0-0.4-0.1-0.5-0.2c0.1-0.1,0.2-0.1,0.3-0.1c0.1,0,0.2,0,0.2-0.4c-0.7-0.1,0.1-1.5-0.6-0.3
						c-0.2-0.7,0.1-0.8,0.1-1.6c-0.4,0.3-1.5-0.8-1.7-1.5c0.2,0,0.4-0.1,0.5-0.2c0.1-1.5,0.4-2.3,0.4-3.6c0.2-0.1,0.4-0.8,0.7-0.5
						c-0.1-0.2-0.4-0.4-0.4-0.8c0.6-0.8,0.1,0.9,0.8,0.3c-0.4-0.1-0.5-1.1-0.8-1.7c-0.6,0.2-0.1,1.4,0.1,2c-0.8,0-1.7-1-2.1-2.5
						c-0.2-1.1,0.5-0.5,0.4-0.7c0.1-2.1-1.5-1.8-0.9-3.6c0.5-0.7,1.1,0,1.5-0.2c0.2,0.9-0.3,1.4-0.3,2.1l0.3-0.8
						c0.2,0.3,0.3,0.9,0.2,1.3C5.3,46,4.9,43,5.3,41.3C5.1,41,5,40.5,4.7,40.8l0.1,0.5c-0.4,0.5-0.6-1-0.8-0.3
						c-0.3-0.7-0.8-1.5-0.5-2.5l0.6-0.2c-0.2,0-0.4,0.6-0.2,0.9c-0.3-0.4,0.8-1.5,0-2L3.5,38c-0.3-0.7-1-1.6-0.8-2.4
						c-0.6,0.4,0.1,0.2-0.6,0.8c0.9-0.5,0,2.2,0.9,1.4c-0.8,0.6-0.3,1.1-1,1.9c0.2,0,0.4-0.3,0.3,0.4c0.1,0,0.1,0.1,0.2,0.2
						c0,0,0,0,0,0l0,0c0,0,0,0,0,0c0.1-0.2,0.2-0.3,0.3-0.4c0.5,0.4,0.4,1.5,0.7,1.9c-0.1,0.4-0.2-0.2-0.4,0.1l0.4,0.6
						c-0.4,0.1-0.7,1.2-1,0.1l0,0.9C2.1,44,2,44.8,2.1,45.2C2,45.7,2.6,46.3,2.3,46l0.3,1.4l-0.1,0c-0.1,1.4,0.7,2.9-0.1,4.6
						c0.1,0.5,0.3,1,0.1,1.8l-0.4,0.2c0.1,0.6-0.4,1.9,0,2.1c-0.5,0.3-0.6,1.1-0.5,1.9c0,0.4,0.1,0.8,0.1,1.2c0,0.1,0,0.3,0,0.4
						c0,0.2,0,0.3,0,0.5c0,0.3,0,0.6,0,0.8l0.5,0c0,1.3,0.1,2.5,0.3,3.8L3,64.2c0.2,0.4,0.1,1.1,0,2c-0.1,0.9-0.3,2-0.3,3L3.1,69
						c-0.1,0.2-0.3,0.3-0.5,0.4c0-0.2,0-0.5,0.1-0.7c-0.1,0.3-0.1,0.6-0.2,0.9c0.8-0.1,2.1-1,3.2-1.8c1.1-0.8,2-1.5,2.9-1.5
						c0.5-0.4,0.8-0.5,1.2-0.6c0,0-0.1,0.1-0.1,0.1c0.1,0,0.1-0.1,0.2-0.1c0.2,0,0.5-0.1,0.7-0.1c-0.2,0-0.5,0-0.6,0.1
						c0.4-0.2,0.9-0.5,1.4-0.9c0.2,0.1,0.3,0.2,0.4,0.3c0,0,0,0,0.1-0.1c0.4,0,0.2-0.3-0.2-0.6c0.1-0.2,0.3-0.3,0.3-0.5
						c0.6,0.5,0.8-0.7,1.6-0.2c0.1-0.5,1.6-1.2,1.4-2c0.1,0.1,0.2,0.1,0,0.2c0.4-0.1,0.9-0.2,1.1-0.6l0.4,0.5l0.5-1.2
						c0.7,0.1,1,0.1,0.7,0.8c0.9-1.3,0.9-0.8,1.6-1.9l0.1,0.4c0.4-0.2,0.7-1,1.1-0.8c1.2,0.2,4.2-2,6.7-2.5c-1-0.8,1.2-0.1,0.9-0.9
						c0.3,0.2,0.6,0.2,0.4,0.6c1-0.8,1.9-0.5,2.3-1.5c0.3,0.2-0.1,0.5,0.1,0.6c0.1-0.1,0.2-0.4,0.4-0.3c0.2,0.1-0.1,0.3-0.2,0.5
						c1.1-0.6,0.8-1.4,0.5-2.2c0.7,0,1-0.2,1.2-0.8c0.3,0.1,0.8,0.2,0.1,0.6c0.4-0.2,2.6-0.9,2.3-1.5c0.2,0.1,0.6-0.2,0.6-0.4
						c0.9-0.4,1-0.4,1.8-0.9l-0.3,0c0-0.9,0.6-0.5,1.3-1l0,0.1c1.9-0.3,0.6-0.6,2.4-0.8L41,48.1c-0.3-1,1.7-0.2,2.4-1L42.9,47
						c0.3-0.6,2,0.5,2.6,0.4c0.2,0-0.1,0.2-0.2,0.4c1.6-0.1-0.1-0.6,0.8-1.3c0.3,0.2,0.2,0.9,0.9,0.6c0.5,0.1,1.4-2,2.6-1.8
						c-0.3-0.1-0.6-0.3-0.3-0.7c0.7-0.4,2.3-0.1,2.6-1.1c0.1,0,0.2,0.1,0.2,0.1c0.4-0.5,1.6-1.2,1.7-1.8c1.3,1.2,3-2.4,3.6-1.1
						l2.2-1.2l0.1,0.1c1.7-0.8,1.9-1.3,1.9-1.7c0.5-0.1,0.4,0.1,0.5,0.1c2.6-1,3-1.3,3.2-2.2l1.2,0c0-0.1,0.5-0.3,1.3-0.6
						c-0.3-0.3-0.8-0.6-1.5-1c-0.7-0.4-1.5-0.8-2.6-1.1c0.1,0,0.3,0,0.6,0c-0.9-0.3-1.5-0.6-2.2-1c-0.6-0.4-1.2-0.8-1.9-1.3
						c-0.6-0.4-1.3-0.8-1.9-1c-0.3-0.1-0.5-0.1-0.7-0.1c-0.2,0-0.4,0.1-0.5,0.3L55.8,30c1.4,0.8-0.6,0.6-0.1,1.2
						c-0.6-0.2-1.2-1.2-0.5-1l0.1,0.1c0.7-0.7-1.7-1.2-1.4-1.7c-2.9-1.4-5.5-3.2-8.1-4.5l0,0.8l-0.9-0.5c-0.2-0.3-0.1-0.7,0.6-0.3
						c-0.2-0.5-1.3-0.2-1.4-0.1c-1.2-0.9,0.9-0.5,0.5-0.7L44,23l0.1,0.1c-0.6,0.1-0.8,0.3-1.5-0.1c-0.4-0.4-0.1-0.5-0.3-0.7
						c0,0,0-0.1-0.3-0.2l-1.2-0.6l0.2,0.7c-0.6,0-1.1-0.6-0.8,0.3c-0.4-1.3-4.3-2.5-4.6-3c-0.9,0-1.6-0.3-2.5-0.8
						c0.2,0.2,0,0.9-0.7,0.4c0.9-1.1-1.2-1.2-1.4-2.4c0.3,0.8-2.3-0.9-1.8,0.3c-0.6-0.4,0.2-0.5-0.2-1c-1.8-0.3-3.2-2-5.2-2.7
						c-0.1,0.1,0.1,0.5-0.4,0.6l-0.6-1.3c-0.4-0.1-0.8,0.7-1.2-0.1c0,0.2,0.1,0.5-0.2,0.4c-3.4-2.6-7.9-3.1-11-6.4
						c0.4,0.6,0,0.4-0.4,0.2C10.2,7,9.7,7.2,9.7,7.5L8.4,6.1C7.8,6.6,6.7,5.3,6.2,5.8l0.6,0.1C5.8,6.3,7,7.9,6.5,8.7
						c1.1-0.4,1.4,2.1,3.2,1.6c0.2,0.3-0.4,0.2-0.3,0.4c0.5-0.2,0.9-0.1,1.5,0.4l-0.1,0.1c2,0.9,2.7,1.6,4.7,2.9l0-0.5
						c0.4,0.3,0.5,0.5,0.6,0.7c0.9-0.4-1.3-0.7-0.5-1.2c0.2,1.2,3.3,1.6,3.3,2.8c0.7,0.4,0-0.6,0.7-0.2l0.1,0.4l0.4-0.3
						c0.4,0.3,0.5,0.7,0.4,1c-0.1-0.1-0.4-0.1-0.5-0.1c0.5,0.6,1.8,0.7,2,0.9l-0.6-0.5c2.1,0.7,4.4,2.2,6.5,2.6l0-0.3
						c1.6,0.3,1.1,0.8,2.8,1.4l-0.1,0c0.4,0,0.9,0.1,1.3,0.3c-0.5,0,0.5,0.8-0.1,0.8c1.8,0.4,0.9,0.1,2.3-0.2l0.1,0.5
						c0.5-0.1,0.6-0.3,1.5,0c-0.8,0,0.3,0.8-0.7,0.8c1.3,1.5,2.9,0.5,3.1,1.9c1.2-0.5-1.2-1.2-0.7-1.2c-0.2-0.5,1-0.4,1.5,0
						c0.5,0.3,0.3,1.6,1.7,2.3c-0.1-0.1-0.2,0-0.3-0.1c0.4,0.5,1.1,0.2,1.6,0.8c0.6-0.4,0.8,0.4,1.2-0.2l-1.3-0.4
						c0.8,0.2,1.9-0.4,2.8,0.6c-0.2,0.1-0.6,0.1-0.9,0.1c0.2,0.4,0.7,0.2,1,0.6c-0.4,0.7-1.6-0.6-2.6-0.4c0.2,0.5,1.7,0.2,0.9,0.8
						c1-0.7,1.3,0.8,2.6,0.5l-0.3,0.4c0.2,0,0.6-0.1,0.8,0.1l-0.8,0.3c1-0.1,1.2,1.1,2.1,1.2c-1.5-0.7-0.1-0.7-0.6-1.3
						c2.1,0.3,0.5,1.6,2.7,2.4c-0.3-0.1-0.9-0.8-0.4-0.8c0.3,0.3,0.8,0.7,0.9,1c1.4,0.6,0-0.5,0.7-0.5c0.2,0.7,0.8,0.1,1.4,0.2
						L52,31.8c1.4,1,0.9-0.7,2.1,0.3l-0.9,0.3l0.8,0.2l-0.4,0.4c1,0,1.2,0.2,1.9,0.7c0-0.2,0.1-0.4,0.3-0.5c0.2-0.1,0.6-0.1,0.7,0
						c0.1,0.4-0.4,0.3,0.2,0.5c-0.3,0.2-0.6,0.5-0.6,0c-0.1,0.1-0.2,0.2-0.4,0.3c0,0,0,0.1,0.1,0.1l0,0.1c0,0,0,0.1,0,0.1
						c0,0,0.1,0.1,0.1,0.1c0.1,0,0.2,0,0.3,0c0,0-0.1-0.1,0-0.1c0.3-0.1,0.7-0.1,1.2-0.2c-0.1,0.2-0.3,0.2-0.6,0.2
						c0.2,0,0.5-0.1,0.8,0c-0.6,0.2-1.1,0.4-1.4,0.4c0.3,0,0.6,0,0.9,0c-0.2,0.1-0.5,0.3-0.8,0.3c-0.1,0.1,0.2,0,0.5,0.1
						c0.4,0,0.9,0.1,1,0.1c0,0-0.1,0-0.2,0.1c0.1,0,0.3,0,0.3,0.1c-0.3,0.1-0.7,0.1-0.9,0.2c-0.2,0.1-0.3,0.1-0.1,0.3
						c-0.4-0.1-0.7-0.2-1-0.3c0,0.1,0.3,0.2,0.6,0.3c0.3,0.1,0.7,0.2,0.5,0.5c-0.3,0.4-0.7-0.3-1-0.4c0.1,0.2,0.2,0.4,0.1,0.6
						c0,0.1,0,0.1-0.1,0.1c0,0-0.2,0.1-0.3,0.2c-0.2,0.1-0.5,0.2-0.8,0.2C55.3,36.8,55.6,36.8,55.8,36.6z M45.5,42.3
						c0.2-0.2,0.4-0.7,0.7-0.5C46.2,42.4,45.9,42.2,45.5,42.3z M30,51.5c0.1-0.2,0.3-0.3,0.7-0.2C30.5,51.4,30.3,51.5,30,51.5z
						 M2.6,44.2C2.6,44.2,2.6,44.2,2.6,44.2C2.4,44.7,2.5,44.6,2.6,44.2z M2.8,43.1C2.7,43,2.7,43,2.6,43.1c0.1,0.1,0.1,0.3,0.1,0.6
						C2.8,43.6,2.9,43.5,2.8,43.1z M42.1,22.5l0.1,0.2C41.7,22.6,41.9,22.5,42.1,22.5z"/>
					<path d="M31.5,50c0.1,0,0.2,0.1,0.2,0.2C31.8,50.1,31.7,50,31.5,50z"/>
					<path d="M57.7,35.4L57.7,35.4c0,0-0.1,0-0.2,0L57.7,35.4z"/>
					<path d="M6.9,59.4c-0.1,0.1-0.2,0.2-0.2,0.3C6.8,59.7,6.9,59.6,6.9,59.4z"/>
					<path d="M2,37.5l0.1,0.7c0-0.3,0.1-0.4,0.2-0.6C2.1,37.6,2,37.7,2,37.5z"/>
					<path d="M5,31.6c-0.1-0.1,0-0.2-0.1-0.3l-0.2,0C4.7,31.8,4.9,32,5,31.6z"/>
					<path d="M3.6,36.9c0.4-0.1,0.3-0.5,0.2-1c0,0,0,0.1,0,0.1C3.2,35.9,3.4,36.4,3.6,36.9z"/>
					<path d="M3.8,35.8c0-0.1,0-0.3,0-0.4C3.5,35.3,3.7,35.6,3.8,35.8z"/>
					<path d="M2.5,41.8c0.1-0.2-0.5-0.1-0.4-0.3C1.7,41.3,2.8,43,2.5,41.8z"/>
					<polygon points="4.9,36.5 4.4,36.7 4.8,36.9 					"/>
					<path d="M4.5,40.3l0.1-0.8c-0.1,0-0.1-0.1-0.2-0.2C4.5,39.8,4.4,40.3,4.5,40.3z"/>
					<path d="M4.5,39.3c0-0.2,0-0.5-0.1-0.6C4.4,38.8,4.5,39.1,4.5,39.3z"/>
					<polygon points="5.1,37.5 5,37.8 4.9,38.3 					"/>
					<path d="M4.5,48.4l0.1,0.8c0.2,0.1,0.3-0.1,0.2-0.5C4.7,48.6,4.6,48.3,4.5,48.4z"/>
					<path d="M5.8,45.9c-0.1,0.2-0.2,0.2-0.4,0.4l0.6,0L5.8,45.9z"/>
					<path d="M6,48.4c0.2,0.1,0.5,1.2,0.5,0.2C6.3,48.4,6.1,47.6,6,48.4z"/>
					<path d="M5.2,60.8l0-0.2l-1,0.4C4.5,60.9,4.8,60.8,5.2,60.8z"/>
					<path d="M9.3,60.3c-0.4-0.1,0.2,0.6-0.2,0.5c0,0.3,0.3,0.1,0.3,0.4c0.1-0.2,0.2-0.3,0.2-0.4C9.6,60.6,9.6,60.5,9.3,60.3z"/>
					<path d="M9.4,61.1c0,0.1-0.1,0.1-0.1,0.2C9.4,61.2,9.4,61.2,9.4,61.1z"/>
					<polygon points="7.6,5.1 7.1,4.6 7.3,5.1 					"/>
					<path d="M6.1,5.3l0.1-0.6L5.7,5C5.8,5,6.1,5.1,6.1,5.3z"/>
					<path d="M43.3,41.9l0,0.2c0.2,0.1,0.3,0,0.6-0.1L43.3,41.9z"/>
					<polygon points="51.2,38.4 51,38.5 51.5,38.9 					"/>
					<path d="M55.4,35.4C55.4,35.4,55.5,35.5,55.4,35.4C55.3,35.4,56.1,35.9,55.4,35.4z"/>
				</g>
			</g>
		</g>
	</g>
</g>
<line class="st0" x1="14.8" y1="11.5" x2="15.6" y2="12.3"/>
<g>
	<g>
		<g>
			<g>
				<g>
					<path d="M19.3,14.3c0.1,0,0-0.1,0-0.1C19.2,14.2,19.3,14.3,19.3,14.3z"/>
					<polygon points="18.5,15.1 18.5,15 18.5,15.2 					"/>
					<path d="M17.7,15.6c0.2,0.1,0.3-0.2,0.5-0.3l0,0l0-0.2C18,15.4,17.9,15.6,17.7,15.6z"/>
					<path d="M17.1,15.6c0.1,0-0.1,0.1,0.1-0.1C17.2,15.6,17.2,15.6,17.1,15.6C17.1,15.6,17.1,15.6,17.1,15.6z"/>
					<path d="M17.1,15.6C17.2,15.5,17.1,15.6,17.1,15.6L17.1,15.6z"/>
					<path d="M16.8,15.9l0.1-0.1c0,0-0.2,0-0.1,0C16.6,15.8,16.7,15.9,16.8,15.9z"/>
					<path d="M16.7,16L16.7,16C16.8,16,16.7,16,16.7,16z"/>
					<path d="M16.9,15.9L16.8,16C16.8,16,16.8,16,16.9,15.9C16.8,16,16.8,15.9,16.9,15.9z"/>
					<path d="M17,15.8c0.1,0,0.2,0,0.1,0.1C17.3,15.7,17.2,15.7,17,15.8z"/>
					<path d="M17.8,15.8l0.1,0l0-0.1C17.9,15.8,17.7,15.8,17.8,15.8z"/>
					<path d="M16,16.3c0,0,0.1,0.1,0.1,0.1l0.1-0.1C16.1,16.3,16,16.3,16,16.3z"/>
					<path d="M16.1,16.4l-0.1,0.1C16.2,16.4,16.2,16.4,16.1,16.4z"/>
					<polygon points="16.8,16.2 17,16 16.8,16.3 					"/>
					<polygon points="15.5,16.6 15.5,16.5 15.5,16.7 					"/>
					<path d="M15.2,16.8c0-0.1-0.1-0.1-0.1-0.1C15,16.8,15,16.9,15,17C15,16.9,15.1,16.8,15.2,16.8z"/>
					<path d="M14.9,17.1c0,0,0-0.1,0.1-0.1C14.9,17,14.9,17,14.9,17.1z"/>
					<path d="M15.8,16.6c0,0-0.1,0-0.2,0L15.8,16.6L15.8,16.6z"/>
					<path d="M15.8,16.7L15.8,16.7c-0.1,0-0.1,0.1-0.1,0.1C15.7,16.7,15.7,16.7,15.8,16.7z"/>
					<path d="M15.8,16.6L15.8,16.6C15.8,16.6,15.8,16.6,15.8,16.6z"/>
					<path d="M16.4,16.4c0,0.1-0.2,0.3,0,0.2C16.5,16.5,16.4,16.5,16.4,16.4z"/>
					<path d="M16,16.7l0.1-0.1c0,0-0.1,0,0-0.1L16,16.7z"/>
					<polygon points="15.9,16.8 16,16.7 15.9,16.7 					"/>
					<path d="M15.2,17c0,0.1-0.1,0.1-0.2,0.2C15.1,17.2,15.2,17.1,15.2,17C15.3,17,15.3,17,15.2,17z"/>
					<path d="M15.5,16.9L15.5,16.9C15.5,16.9,15.5,16.9,15.5,16.9z"/>
					<polygon points="14.3,17.7 14.3,17.7 14.3,17.7 					"/>
					<path d="M15.3,17.1c0.1,0,0.1-0.1,0.1-0.1C15.3,17,15.3,17,15.3,17.1C15.3,17.1,15.3,17.1,15.3,17.1z"/>
					<path d="M14.7,17.3c0,0,0.1,0,0.1,0C14.8,17.3,14.7,17.3,14.7,17.3z"/>
					<path d="M15.4,16.9L15.4,16.9C15.4,16.9,15.4,16.9,15.4,16.9z"/>
					<path d="M15.4,16.9c0,0,0,0.1,0,0.1C15.4,16.9,15.4,16.9,15.4,16.9C15.5,16.9,15.4,16.9,15.4,16.9z"/>
					<path d="M14.5,18.4c0-0.1,0.1-0.3,0.2-0.3c0.1-0.1-0.2-0.4-0.4-0.4c0,0,0,0.1-0.1,0.2c0.1,0,0.4-0.1,0.3,0.1
						c-0.1,0.2-0.2,0.1-0.3,0.1c0.1,0.1-0.1,0.3,0,0.4L14.5,18.4C14.5,18.3,14.4,18.4,14.5,18.4z"/>
					<path d="M14.6,17.5L14.6,17.5c0,0-0.1,0-0.2,0c-0.1,0.1-0.1,0.1,0,0.2L14.6,17.5L14.6,17.5z"/>
					<path d="M14.9,17.3c0,0.1-0.1,0.2,0.1,0.3c0.2-0.1,0.1-0.2,0.1-0.3C14.8,17.6,15.1,17.3,14.9,17.3c0,0,0.1-0.1,0.1-0.1
						C15,17.2,14.9,17.3,14.9,17.3L14.9,17.3L14.9,17.3L14.9,17.3C14.9,17.3,14.9,17.3,14.9,17.3L14.9,17.3
						C14.9,17.3,14.9,17.3,14.9,17.3C14.8,17.4,14.9,17.3,14.9,17.3L14.9,17.3L14.9,17.3l-0.2,0.2C14.7,17.5,14.8,17.4,14.9,17.3z"
						/>
					<path d="M16.5,16.9C16.5,16.9,16.5,16.9,16.5,16.9C16.4,16.9,16.4,16.9,16.5,16.9z"/>
					<path d="M16.3,16.9c0,0,0-0.1,0.1-0.1c0.1,0,0,0,0.1,0.1c0,0,0.1-0.2-0.1-0.1l0,0c-0.1,0-0.3,0-0.3,0
						C16.1,16.8,16.2,16.9,16.3,16.9z"/>
					<path d="M15.6,17.1l-0.2,0.2l0.2,0l0,0C15.7,17.2,15.6,17.2,15.6,17.1z"/>
					<polygon points="14.3,17.7 14.2,17.6 14.2,17.8 					"/>
					<polygon points="14,17.9 13.9,17.8 13.9,17.9 					"/>
					<path d="M4.4,24.5L4.4,24.5C4.4,24.4,4.4,24.4,4.4,24.5z"/>
					<path d="M3.9,24.8L3.9,24.8C3.9,24.8,3.9,24.8,3.9,24.8z"/>
					<path d="M7.1,22.6c-0.1,0-0.3-0.1-0.3,0L7,22.6C7,22.6,7.1,22.6,7.1,22.6z"/>
					<path d="M2.8,26.3L2.8,26.3c0,0,0-0.1,0-0.1C2.8,26.2,2.8,26.3,2.8,26.3z"/>
					<path d="M3,26.7l-0.2,0C2.9,26.7,2.9,26.7,3,26.7z"/>
					<path d="M6.8,22.7l0-0.1C6.7,22.6,6.8,22.6,6.8,22.7z"/>
					<path d="M11.1,19.9c-0.1,0-0.2,0-0.2,0.1C11,19.9,11.2,19.9,11.1,19.9z"/>
					<path d="M4.8,25.5C4.9,25.5,4.9,25.5,4.8,25.5C4.8,25.5,4.8,25.5,4.8,25.5z"/>
					<path d="M10.7,20.1C10.7,20.1,10.7,20.1,10.7,20.1c0.1-0.1,0.2-0.1,0.2-0.2C10.8,19.9,10.7,20,10.7,20.1z"/>
					<path d="M15.9,16.6C15.9,16.6,15.9,16.6,15.9,16.6C15.9,16.5,15.9,16.6,15.9,16.6z"/>
					<path d="M19.2,15.7c0,0-0.1,0.1-0.1,0.1C19.1,15.7,19.1,15.7,19.2,15.7z"/>
					<path d="M12.8,18.6C12.9,18.5,12.8,18.6,12.8,18.6L12.8,18.6z"/>
					<path d="M13.4,18.8C13.4,18.8,13.4,18.8,13.4,18.8C13.4,18.8,13.4,18.8,13.4,18.8z"/>
					<path d="M10.5,21L10.5,21C10.5,21.1,10.5,21.1,10.5,21z"/>
					<path d="M12.9,18.6C12.9,18.6,12.9,18.6,12.9,18.6C12.9,18.6,12.9,18.6,12.9,18.6z"/>
					<path d="M12.9,18.5C12.9,18.5,12.9,18.5,12.9,18.5C13,18.5,12.9,18.5,12.9,18.5z"/>
					<path d="M12.8,18.7c0,0,0.1,0,0.1-0.1C12.8,18.6,12.8,18.6,12.8,18.7C12.8,18.6,12.8,18.6,12.8,18.7z"/>
					<path d="M11.2,20.1C11.2,20.1,11.2,20.1,11.2,20.1C11.3,20,11.3,20.1,11.2,20.1z"/>
					<polygon points="6.2,24.5 6.2,24.5 6.2,24.5 					"/>
					<path d="M6,24.7c0-0.2,0.1-0.2,0.2-0.2L6,24.3L6,24.7z"/>
					<path d="M5.5,23.7l-0.2,0c0.1-0.3,0.3-0.3,0-0.3c0.2,0.3-0.6,0.4-0.4,0.7l-0.1,0c0,0,0,0,0.1-0.1c-0.3,0,0,0.3-0.3,0.4
						c-0.1,0-0.2,0-0.2,0l-0.1,0.2c-0.1,0-0.1,0,0-0.1l-0.3,0.2l0,0c0,0.1-0.1,0.2-0.1,0.3c-0.1,0,0-0.1,0-0.1l-0.1,0.2
						c-0.1,0,0-0.2,0.1-0.3c-0.3-0.2-0.1,0.2-0.5,0.2L3.4,25c-0.2-0.1-0.3,0-0.5,0.1c0.1,0,0.5,0,0.4,0.2c-0.1,0-0.1,0-0.2,0.2
						c-0.1-0.1-0.1,0-0.3,0.1l-0.1-0.1c-0.1,0.1,0,0.2-0.1,0.3c-0.1,0.1-0.2,0-0.3-0.1c-0.2,0.1,0.3,0.1,0,0.3
						C2.1,26,2,26.1,1.8,26.3c-0.2,0,0-0.1-0.1-0.1l0,0.2c0,0,0,0,0,0c-0.1,0.1,0.1,0.1,0,0.3c0,0.1-0.1,0.1-0.2,0.1l0.4,0.6
						c0.1,0,0.3,0,0.4-0.2c0.1,0,0,0.1,0.1,0.1c0.2-0.3,0.2-0.2,0.3-0.5l0.2,0c-0.2,0-0.1-0.2,0-0.4c-0.1,0-0.1,0-0.2,0L2.8,26
						c0,0,0.1,0.1,0,0.1l0-0.1C3,26.1,3,26.2,3,26.3c0,0-0.1,0-0.1,0c0,0.1,0,0.2,0.1,0.3c0,0,0-0.1,0.1-0.1c0,0,0,0.1,0,0.1
						c0,0,0,0,0-0.1l0.2,0.1l0-0.1l0.4-0.1c0.1-0.3,0.2-0.7,0.5-1c0,0.2,0.1,0.2,0.2,0.3C4,25.7,3.9,26,3.7,26.1
						c0.1-0.1,0.1,0,0.1,0.1l0.2-0.3c0.1,0.1,0.1,0,0.2,0c-0.2-0.2,0.1-0.3,0.2-0.5c0.1,0.1,0.1,0.2-0.1,0.3c0.3,0,0.1-0.4,0.3-0.4
						c0,0-0.1,0-0.1,0.1c0.1-0.1,0.3-0.2,0.3-0.1l0,0c0.3-0.2,0.8-0.5,0.7-0.7c0,0,0.1,0.2,0.1,0.3l0.1-0.9C6,24,6.4,24.3,6.2,24.5
						c0.1,0,0.2,0,0.3-0.2c-0.1,0-0.3-0.1-0.2-0.2c0.3,0.1,0.2,0,0.5,0c-0.1,0-0.2-0.3-0.1-0.3c0,0,0.2,0.2,0.1,0.3l0.1-0.4
						c0,0.1,0.1,0.2,0.2,0.2c-0.1,0,0.2-0.1,0.3-0.2l-0.1,0c0.3-0.2,0.1-0.5,0.3-0.7c0,0.1,0.1,0.4,0.3,0.3c0-0.2-0.1-0.8,0.1-1
						l0.1,0l0.1-0.2c0,0.3-0.1,0.9-0.2,1.1c0.1,0,0.1,0.1,0.2-0.1c0.1,0,0,0.2-0.1,0.2l0.4-0.2c-0.1-0.1,0.2-0.3,0.1-0.4l-0.3,0.4
						c-0.1-0.1,0-0.6,0.2-0.7c0.1,0,0.1,0.3,0.2,0.3c0-0.1,0.2-0.3,0.2-0.2L9,22.7c0.2,0,0.1-0.3,0.4-0.3c0.1,0,0.3,0.1,0.3,0
						c-0.2-0.1-0.6-0.6-0.6-0.7c0,0,0.4-0.1,0.5,0c0.2,0.1,0.1,0.4,0.2,0.4c0,0,0-0.1,0-0.2c0.1,0,0.1,0.1,0.2,0
						c-0.1-0.2,0.3-0.2,0-0.2c0.1-0.1,0.2-0.1,0.3-0.2c-0.1-0.1-0.1-0.4,0-0.5c0,0,0.1,0.1,0.1,0.1c0.3-0.2,0.5-0.2,0.7-0.4
						c0,0,0.2,0,0.2,0.1c0-0.1,0-0.1,0.1-0.2c0.2,0-0.2,0.1,0.1,0.2c0-0.1,0.1-0.3,0.2-0.4c-0.1-0.1-0.3,0.2-0.4,0.3
						c-0.1-0.2,0-0.5,0.2-0.8c0.2-0.2,0.2,0,0.2,0c0.4-0.2,0.1-0.5,0.6-0.6c0.2,0,0.2,0.2,0.2,0.3c-0.1,0.2-0.3,0.1-0.4,0.2l0.2,0
						c0,0.1-0.1,0.2-0.2,0.2c0.2,0,0.7-0.4,1.1-0.6c0-0.1,0.1-0.2,0-0.2l-0.1,0.1c-0.2,0,0.1-0.3-0.1-0.2c0.1-0.2,0.2-0.4,0.4-0.4
						l0.1,0.1c0,0-0.2,0-0.2,0.1c0-0.1,0.4,0,0.4-0.2l-0.2,0c0.1-0.2,0.2-0.4,0.4-0.5c-0.2-0.1,0,0-0.2,0c0.2,0.1-0.4,0.3-0.1,0.4
						c-0.2-0.1-0.3,0.1-0.5,0c0,0,0.1,0,0,0.1c0,0,0,0,0,0.1l0,0l0,0c0,0,0,0,0,0c0,0,0.1,0,0.1,0c0,0.1-0.2,0.3-0.3,0.4
						c-0.1,0,0-0.1-0.1-0.1L12.7,19c-0.1-0.1-0.3,0-0.2-0.2L12.3,19c-0.1,0-0.3,0.1-0.4,0.2c-0.1,0-0.1,0.2-0.1,0.1l-0.2,0.2l0,0
						c-0.3,0.2-0.5,0.5-0.9,0.6c-0.1,0.1-0.1,0.2-0.3,0.3l-0.1-0.1c-0.1,0.1-0.4,0.2-0.4,0.3c-0.3-0.1-0.6,0.3-0.8,0.4l0.1,0.1
						c-0.1,0.1-0.3,0.2-0.4,0.4l0.1,0.1c-0.1,0.2-0.4,0.2-0.7,0.4c0,0,0.1-0.1,0.1-0.1c-0.4,0-0.5,0.6-0.9,0.6
						c0,0.1-0.1,0.1-0.2,0.1l0,0l0,0c0,0-0.1,0-0.1,0c0,0,0.1,0,0.1,0c0,0-0.1,0.1-0.2,0.2L7,22.6c0,0,0,0,0,0c-0.1,0,0,0.1,0.1,0.1
						c0,0,0,0.1-0.1,0.1c-0.2-0.1-0.2,0.2-0.4,0.1c0,0.1-0.3,0.3-0.2,0.5c0,0,0,0,0,0c-0.1,0-0.2,0.1-0.2,0.2L6,23.5l-0.1,0.3
						c-0.2,0-0.2,0-0.2-0.2c-0.2,0.3-0.2,0.2-0.3,0.5l0-0.1c-0.1,0.1-0.1,0.3-0.2,0.2c-0.3,0-0.9,0.6-1.5,0.7c0.3,0.2-0.3,0-0.2,0.2
						c-0.1,0-0.2,0-0.1-0.1c-0.2,0.2-0.4,0.1-0.5,0.4c-0.1,0,0-0.1-0.1-0.1c0,0,0,0.1-0.1,0.1c0,0,0-0.1,0-0.1
						c-0.2,0.2-0.1,0.4,0,0.5c-0.2,0-0.2,0.1-0.2,0.2c-0.1,0-0.2,0-0.1-0.2c-0.1,0-0.6,0.3-0.5,0.4c0,0-0.1,0.1-0.1,0.1
						c-0.2,0.1-0.2,0.1-0.4,0.3l0.1,0c0,0.1,0,0.1,0,0.1l0.2,0.3c0,0,0.1,0,0.2-0.1l0,0C2.4,27,2.1,27,2.5,26.9l-0.1-0.1
						c-0.1-0.2,0.4-0.1,0.5-0.3l-0.1,0c0.1-0.1,0.5,0.1,0.6,0c0,0,0,0.1,0,0.1c0.4-0.1-0.1-0.2,0.1-0.3c0.1,0,0.1,0.2,0.2,0.1
						c0.1,0,0.3-0.5,0.5-0.5c-0.1,0-0.2-0.1-0.1-0.2c0.1-0.1,0.5-0.1,0.6-0.3c0,0,0,0,0.1,0c0.1-0.1,0.3-0.3,0.3-0.5
						c0.3,0.3,0.6-0.6,0.8-0.3l0.3-0.3l0,0c0.2-0.1,0.3-0.3,0.3-0.4c0.1,0,0,0,0.1,0.1c0.4-0.2,0.4-0.2,0.6-0.5l0.1,0.1
						c0-0.1,0.6-0.2,0.8-0.5c0,0,0,0,0,0.1c0.3-0.4,1.1-0.3,0.9-0.8l0.2-0.3C8.9,22.4,9.2,22,9,22c0.1-0.1,0.4-0.1,0.3,0l0,0
						c0.1,0.2,0.4-0.2,0.5-0.1c0.6-0.4,1.3-0.7,1.8-1.1l-0.2-0.1l0.2-0.1c0.1,0,0.2,0.1,0,0.2c0.1,0,0.2-0.2,0.2-0.3
						c0.3-0.1,0,0.2,0.1,0.2l0.1-0.1l0,0c0.1-0.1,0-0.2,0.2-0.3c0.1,0,0.1,0.1,0.2,0c0,0,0,0,0.1,0l0.3-0.2l-0.2-0.1
						c0.1-0.1,0.2-0.2,0-0.2c0.3,0.1,1-0.6,1.1-0.6c0.1-0.2,0.2-0.3,0.4-0.4c-0.1,0-0.2-0.1,0-0.2c0.1,0.3,0.4-0.1,0.6,0
						c-0.2-0.1,0.4-0.3,0.1-0.4c0.2-0.1,0.1,0.1,0.2,0.1c0.3-0.3,0.8-0.4,1.1-0.7c0,0-0.1-0.1-0.1-0.2l0.3,0
						c0.1-0.1-0.1-0.3,0.2-0.2c0,0-0.1,0-0.1-0.1c0.9-0.4,1.5-1.2,2.5-1.4c-0.2,0-0.1-0.1,0-0.1c-0.1,0-0.1-0.1-0.1-0.1l0.4-0.1
						c0-0.2,0.4-0.3,0.3-0.4l-0.1,0.1c0-0.2-0.4-0.2-0.5-0.4c0,0.3-0.6,0-0.7,0.4c-0.1,0,0-0.1-0.1-0.1c0,0.1-0.1,0.2-0.2,0.3l0,0
						c-0.4,0.3-0.6,0.3-1.1,0.6L17,16c-0.1,0.1-0.1,0-0.2,0c0,0.2,0.3-0.2,0.3,0.1c-0.3-0.1-0.7,0.5-0.9,0.3c-0.2,0.1,0.1,0.1,0,0.2
						l-0.1,0l0,0.1c-0.1,0.1-0.2,0-0.3,0c0,0,0.1-0.1,0.1-0.1c-0.2,0-0.3,0.3-0.4,0.3l0.2-0.1c-0.4,0.3-0.9,0.6-1.3,1l0.1,0
						c-0.2,0.3-0.3,0.1-0.6,0.4l0,0c0,0.1-0.1,0.2-0.2,0.2c0-0.1-0.2,0-0.2-0.1c-0.3,0.3-0.1,0.2-0.2,0.5l-0.1,0
						c0,0.1,0,0.2-0.2,0.3c0.1-0.2-0.2,0-0.1-0.2c-0.5,0.1-0.4,0.5-0.7,0.4c0,0.3,0.4-0.1,0.3,0c0.1,0,0,0.2-0.2,0.3
						c-0.1,0.1-0.4-0.1-0.7,0.1c0,0,0,0,0-0.1c-0.1,0-0.2,0.2-0.3,0.2c0,0.2-0.2,0.1-0.1,0.3l0.2-0.2c-0.1,0.1-0.1,0.4-0.4,0.5
						c0,0,0-0.1,0.1-0.2c-0.1,0-0.1,0.1-0.2,0.1c-0.1-0.2,0.3-0.3,0.4-0.5c-0.1,0-0.2,0.3-0.3,0.1c0,0.3-0.3,0.2-0.4,0.5l-0.1-0.1
						c0,0-0.1,0.1-0.1,0.2l0-0.2c-0.1,0.2-0.4,0.1-0.5,0.3c0.3-0.2,0.2,0.1,0.3,0.1c-0.3,0.4-0.4-0.1-0.8,0.2c0-0.1,0.3-0.1,0.2,0
						c-0.1,0-0.2,0.1-0.3,0.1c-0.3,0.2,0.1,0.1,0,0.2c-0.2-0.1-0.1,0.1-0.2,0.3l-0.1-0.1c-0.4,0.2,0.1,0.3-0.3,0.4l0-0.2l-0.1,0.1
						l0-0.1c-0.1,0.2-0.2,0.2-0.4,0.3c0.1,0,0.1,0.2,0,0.3c-0.1,0,0-0.1-0.2,0c0-0.1,0-0.2,0.2-0.2c0,0,0-0.1,0-0.1
						c-0.2,0-0.3,0.2-0.4,0.2c0,0,0.1,0,0.1,0l-0.2,0.3c-0.1,0-0.1-0.1,0-0.1c-0.1,0.1-0.1,0.1-0.1,0.2c0-0.1-0.1-0.2,0-0.3
						l-0.2,0.3c0,0-0.2,0-0.2-0.1c-0.2,0.1-0.3,0.4-0.5,0.5c0,0,0,0.1,0,0.1c-0.2,0.1-0.4,0.1-0.6,0.4l-0.2-0.1
						c-0.2,0.2,0.3,0.1,0,0.3c-0.2,0.2-0.2-0.1-0.3-0.1c-0.1,0.1-0.1,0.4-0.4,0.4C5.3,23.8,5.4,23.7,5.5,23.7z M3.3,25.3
						c0-0.1,0.1-0.2,0.1-0.1C3.4,25.3,3.4,25.3,3.3,25.3z M3.2,26.3c0,0.1-0.1,0.1-0.2,0.1C3.1,26.3,3.2,26.3,3.2,26.3z M12.2,19.1
						L12.2,19.1C12.1,19.2,12.2,19.1,12.2,19.1z M12.5,19C12.5,19,12.5,19,12.5,19c0,0-0.1,0-0.1,0C12.4,19.1,12.4,19.1,12.5,19z
						 M12.3,20.4L12.3,20.4C12.3,20.3,12.3,20.3,12.3,20.4z"/>
					<path d="M3,26.7C2.9,26.7,2.9,26.6,3,26.7C2.9,26.6,2.9,26.7,3,26.7z"/>
					<polygon points="6.8,22.7 6.8,22.7 6.8,22.7 					"/>
					<path d="M9.9,22c-0.1,0-0.1,0-0.1,0C9.8,22,9.9,22,9.9,22z"/>
					<path d="M13.4,18.1l-0.1,0.1C13.4,18.2,13.4,18.2,13.4,18.1C13.4,18.2,13.4,18.2,13.4,18.1z"/>
					<path d="M14.9,18C15,18,15,18,14.9,18L14.9,18C14.9,17.9,14.9,18,14.9,18z"/>
					<path d="M13.8,18.4c0.1,0.1,0.1,0,0.2-0.1l0,0C13.9,18.2,13.8,18.3,13.8,18.4z"/>
					<path d="M14,18.3C14,18.3,14,18.2,14,18.3C14,18.2,14,18.2,14,18.3z"/>
					<path d="M12.7,18.8c0.1,0,0-0.1,0-0.1C12.7,18.5,12.5,19,12.7,18.8z"/>
					<polygon points="14,18.6 13.9,18.5 13.9,18.6 					"/>
					<path d="M13.3,19l0.2-0.1c0,0,0,0,0-0.1C13.3,18.9,13.2,19,13.3,19z"/>
					<path d="M13.4,18.9c0,0,0.1-0.1,0.1-0.1C13.5,18.8,13.5,18.8,13.4,18.9z"/>
					<polygon points="13.8,18.8 13.8,18.8 13.7,18.8 					"/>
					<path d="M11.7,20.1l-0.1,0.1c0,0,0.1,0,0.1,0C11.7,20.1,11.7,20.1,11.7,20.1z"/>
					<path d="M12.4,20c-0.1,0-0.1,0-0.1,0l0.1,0.1L12.4,20z"/>
					<path d="M11.9,20.4c0,0-0.2,0.3,0,0.1C12,20.4,12.1,20.3,11.9,20.4z"/>
					<polygon points="9.5,21.8 9.5,21.8 9.3,21.6 					"/>
					<path d="M7.7,23.7c0.2-0.1,0-0.2,0.2-0.2c0-0.1-0.2,0-0.2,0C7.6,23.6,7.6,23.6,7.7,23.7z"/>
					<path d="M7.7,23.5C7.7,23.5,7.7,23.4,7.7,23.5C7.7,23.4,7.7,23.5,7.7,23.5z"/>
					<polygon points="19.7,15.5 19.8,15.4 19.7,15.4 					"/>
					<path d="M19.8,15.2l0.1,0.1l0-0.2C19.9,15.1,19.9,15.2,19.8,15.2z"/>
					<path d="M2.7,25.2L2.7,25.2c0.1,0.1,0.1,0,0.1,0L2.7,25.2z"/>
					<polygon points="4.4,24.2 4.4,24.2 4.5,24.3 					"/>
					<path d="M5.7,23.2c-0.1,0-0.1,0.1-0.2,0.1C5.6,23.2,5.8,23.3,5.7,23.2z"/>
				</g>
			</g>
		</g>
	</g>
</g>
<g>
	<g>
		<g>
			<g>
				<g>
					<path d="M34.4,19.7c0.1,0,0-0.2,0-0.2C34.2,19.6,34.4,19.7,34.4,19.7z"/>
					<polygon points="33,21 33,20.9 32.9,21.2 					"/>
					<path d="M31.5,21.9c0.3,0.2,0.5-0.4,0.8-0.4l0.1,0l0-0.3C32.1,21.4,31.8,21.8,31.5,21.9z"/>
					<path d="M30.4,21.7c0.1,0.1-0.1,0.2,0.2-0.1c0,0,0,0-0.1,0C30.5,21.6,30.4,21.6,30.4,21.7z"/>
					<path d="M30.5,21.6C30.7,21.5,30.4,21.6,30.5,21.6L30.5,21.6z"/>
					<path d="M29.8,22.1l0.1-0.2c-0.1,0-0.3,0-0.2,0C29.6,22,29.6,22,29.8,22.1z"/>
					<path d="M29.8,22.4l0.1-0.1C29.8,22.3,29.8,22.3,29.8,22.4z"/>
					<path d="M30,22.1l-0.2,0.2c0.1,0,0.1,0.1,0.1-0.1C30,22.3,30,22.2,30,22.1z"/>
					<path d="M30.2,22.1c0.2,0,0.3,0,0.2,0.2C30.7,22,30.5,21.8,30.2,22.1z"/>
					<path d="M31.6,22.2l0.2,0l0.1-0.2C31.9,22.2,31.6,22.2,31.6,22.2z"/>
					<path d="M28.5,22.7c0,0.1,0.2,0.1,0.2,0.2l0.1-0.2C28.7,22.7,28.5,22.8,28.5,22.7z"/>
					<path d="M28.7,22.9l-0.2,0.2C28.8,23,28.8,23,28.7,22.9z"/>
					<polygon points="29.9,22.8 30.2,22.3 29.9,22.8 					"/>
					<polygon points="27.6,23.2 27.6,23 27.5,23.3 					"/>
					<path d="M27,23.5c0-0.2-0.3-0.1-0.2-0.3c-0.1,0.1-0.2,0.3-0.3,0.5C26.7,23.6,26.8,23.5,27,23.5z"/>
					<path d="M26.4,24c0-0.1,0.1-0.2,0.1-0.3C26.5,23.8,26.5,23.9,26.4,24z"/>
					<path d="M28.1,23.3c0,0-0.1-0.1-0.3-0.1L28.1,23.3C28.1,23.4,28.1,23.3,28.1,23.3z"/>
					<path d="M28.1,23.4L28.1,23.4c-0.1,0-0.2,0.1-0.2,0.1C27.9,23.5,27.9,23.4,28.1,23.4z"/>
					<path d="M28.2,23.3L28.2,23.3C28.2,23.3,28.2,23.3,28.2,23.3z"/>
					<path d="M29.2,23c-0.1,0.2-0.3,0.5,0.1,0.5C29.3,23.2,29.1,23.2,29.2,23z"/>
					<path d="M28.4,23.5l0.3-0.1c0,0-0.1-0.1-0.1-0.2L28.4,23.5z"/>
					<polygon points="28.3,23.6 28.4,23.5 28.3,23.5 					"/>
					<path d="M27,23.9c-0.1,0.1-0.2,0.2-0.3,0.3c0.2,0,0.3-0.1,0.4-0.2C27.1,24,27.1,23.8,27,23.9z"/>
					<path d="M27.5,23.7L27.5,23.7C27.5,23.7,27.5,23.7,27.5,23.7z"/>
					<polygon points="25.4,25 25.4,25 25.4,25 					"/>
					<path d="M27.2,24.1c0.1,0,0.2-0.1,0.2-0.2C27.3,23.9,27.2,24,27.2,24.1C27.1,24.1,27.1,24.1,27.2,24.1z"/>
					<path d="M26.1,24.3c0.1,0,0.2,0,0.2,0C26.3,24.3,26.1,24.2,26.1,24.3z"/>
					<path d="M27.4,23.7L27.4,23.7C27.4,23.6,27.4,23.6,27.4,23.7z"/>
					<path d="M27.4,23.7c0,0.1-0.1,0.1-0.1,0.2C27.4,23.8,27.4,23.8,27.4,23.7C27.5,23.7,27.4,23.7,27.4,23.7z"/>
					<path d="M25.7,26.4c-0.1-0.2,0.1-0.5,0.4-0.5c0.2-0.3-0.3-0.7-0.7-0.9c0,0.1,0.1,0.1-0.1,0.4c0.1,0,0.7-0.1,0.5,0.2
						c-0.3,0.3-0.3,0.1-0.5,0.1c0.3,0.1-0.2,0.5,0,0.8l0.2-0.3C25.7,26.2,25.6,26.4,25.7,26.4z"/>
					<path d="M25.9,24.7L25.9,24.7c0,0-0.2-0.1-0.4-0.1c-0.1,0.2-0.1,0.3-0.1,0.3L25.9,24.7L25.9,24.7z"/>
					<path d="M26.4,24.4c0,0.2-0.2,0.4,0.1,0.6c0.3-0.2,0.1-0.3,0.2-0.5C26.3,24.8,26.8,24.3,26.4,24.4c0.1-0.1,0.2-0.1,0.2-0.2
						c-0.1,0-0.2,0-0.3,0.1l0,0l0,0l0,0C26.4,24.3,26.5,24.3,26.4,24.4L26.4,24.4C26.4,24.3,26.4,24.4,26.4,24.4
						C26.3,24.4,26.4,24.4,26.4,24.4l0-0.1l0,0L26,24.7C26.1,24.6,26.2,24.6,26.4,24.4z"/>
					<path d="M29.3,24C29.3,24,29.3,23.9,29.3,24C29.3,24,29.2,24,29.3,24z"/>
					<path d="M29.1,24c0,0,0-0.1,0.1-0.2c0.1,0,0.1,0.1,0.1,0.1c0-0.1,0.2-0.3-0.1-0.2l0,0c-0.2,0-0.6,0-0.6-0.1
						C28.7,23.8,28.8,23.9,29.1,24z"/>
					<path d="M27.8,24.2l-0.3,0.3l0.3,0l-0.1-0.1C27.9,24.4,27.8,24.3,27.8,24.2z"/>
					<polygon points="25.3,24.9 25.2,24.7 25.2,25.1 					"/>
					<polygon points="24.8,25.2 24.7,25 24.7,25.2 					"/>
					<path d="M7.6,35.4l0.1-0.1C7.6,35.4,7.6,35.4,7.6,35.4z"/>
					<path d="M6.7,35.9L6.7,35.9C6.8,35.9,6.8,35.9,6.7,35.9z"/>
					<path d="M12.5,32.5c-0.3-0.1-0.6-0.2-0.5,0l0.2,0.2C12.3,32.5,12.4,32.5,12.5,32.5z"/>
					<path d="M4.7,38.5L4.7,38.5c0.1-0.1,0.1-0.1,0.1-0.2C4.8,38.4,4.8,38.5,4.7,38.5z"/>
					<path d="M5.1,39.4l-0.3,0C4.9,39.4,4.9,39.4,5.1,39.4z"/>
					<path d="M11.9,32.6l0-0.3C11.8,32.5,11.9,32.5,11.9,32.6z"/>
					<path d="M19.7,28.3c-0.2,0-0.3,0-0.4,0.1C19.5,28.4,19.8,28.5,19.7,28.3z"/>
					<path d="M8.4,37.6c0-0.1,0.1-0.1,0-0.2C8.4,37.5,8.4,37.6,8.4,37.6z"/>
					<path d="M18.9,28.6c0,0,0.1,0,0.1,0c0.1-0.1,0.2-0.2,0.3-0.2C19.1,28.4,19,28.4,18.9,28.6z"/>
					<path d="M28.3,23.2C28.3,23.2,28.3,23.2,28.3,23.2C28.3,23.2,28.3,23.2,28.3,23.2z"/>
					<path d="M34.1,22.3c0,0-0.1,0.1-0.2,0.1C34,22.4,34.1,22.4,34.1,22.3z"/>
					<path d="M22.8,26.3C22.9,26.2,22.8,26.3,22.8,26.3L22.8,26.3z"/>
					<path d="M23.7,26.8c0,0,0,0.1,0,0.1C23.7,26.8,23.7,26.8,23.7,26.8z"/>
					<path d="M18.5,30.4L18.5,30.4C18.6,30.5,18.5,30.4,18.5,30.4z"/>
					<path d="M23,26.3c-0.1,0-0.1,0-0.2,0C22.8,26.3,22.9,26.3,23,26.3z"/>
					<path d="M22.9,26.2c0,0,0.1,0,0.1,0C23,26.2,23,26.2,22.9,26.2z"/>
					<path d="M22.6,26.4c0.1,0,0.1-0.1,0.2-0.1c0,0,0,0,0,0C22.7,26.3,22.7,26.4,22.6,26.4z"/>
					<path d="M19.9,28.8C19.9,28.8,19.9,28.8,19.9,28.8C20,28.7,19.9,28.7,19.9,28.8z"/>
					<polygon points="10.9,36 10.9,36 10.9,36 					"/>
					<path d="M10.6,36.4c0-0.3,0.1-0.4,0.3-0.4l-0.4-0.5L10.6,36.4z"/>
					<path d="M9.5,34.2l-0.4,0c0.2-0.5,0.5-0.5,0.1-0.6c0.3,0.6-1,0.7-0.7,1.3l-0.2,0c0.1,0,0-0.1,0.1-0.1c-0.5-0.1,0,0.6-0.5,0.8
						c-0.2,0-0.3,0-0.3-0.1l-0.3,0.3c-0.1,0-0.1-0.1,0-0.1L6.8,36l0,0c0,0.1-0.1,0.4-0.2,0.5c-0.2,0,0-0.1,0-0.2l-0.2,0.3
						c-0.2-0.1-0.1-0.4,0.2-0.5c-0.6-0.4-0.2,0.3-0.9,0.3l0.2-0.2c-0.4-0.2-0.5,0-0.9,0c0.1,0.1,0.9,0.2,0.7,0.5
						c-0.1,0-0.2,0.1-0.3,0.3c-0.1-0.2-0.3-0.1-0.5,0.1l-0.1-0.3c-0.2,0.2-0.1,0.3-0.1,0.5c-0.3,0.1-0.4-0.1-0.6-0.2
						c-0.4,0.2,0.5,0.2,0,0.5C3.5,37.7,3.3,38,3,38.4c-0.3,0-0.1-0.2-0.2-0.2l-0.1,0.3c-0.1,0-0.1-0.1-0.1-0.1
						c-0.1,0.2,0.1,0.3-0.1,0.5c0,0.2-0.1,0.1-0.3,0.1L3,40.3c0.3,0,0.6,0,0.7-0.3c0.1,0,0.1,0.2,0.1,0.3c0.3-0.5,0.3-0.4,0.5-0.9
						l0.4,0c-0.4-0.1-0.2-0.5,0-0.8c-0.1-0.1-0.3-0.1-0.3-0.1L4.7,38c0.1,0,0.1,0.1,0.1,0.3c0,0,0-0.1,0-0.1c0.2,0,0.2,0.2,0.2,0.4
						c-0.1,0-0.2-0.1-0.3-0.1c0,0.2,0,0.5,0.1,0.6c0,0,0-0.1,0.1-0.2c0,0.1,0,0.1,0,0.1c0,0,0-0.1,0.1-0.2l0.3,0.3l0-0.1L6,39
						c0.2-0.5,0.3-1.2,0.9-1.7c0,0.3,0.2,0.4,0.3,0.7c-0.3-0.2-0.4,0.4-0.8,0.5c0.2-0.1,0.2,0.1,0.2,0.1L7.1,38
						c0.1,0.2,0.2,0.1,0.4,0.1c-0.4-0.4,0.3-0.5,0.4-0.8c0.1,0.1,0.1,0.3-0.2,0.5c0.5,0.1,0.1-0.8,0.6-0.7c-0.1,0-0.1,0-0.1,0.1
						C8.3,37,8.8,36.9,8.8,37l-0.1,0c0.5-0.2,1.4-0.8,1.3-1.2c0,0,0.2,0.5,0.2,0.6l0.1-1.7c0.1,0.4,0.8,0.9,0.5,1.3
						c0.1,0,0.3-0.1,0.5-0.3c-0.1,0-0.5-0.3-0.4-0.4c0.5,0.2,0.3,0.1,0.8,0.2c-0.2,0-0.3-0.6-0.1-0.7c0,0.1,0.3,0.5,0.3,0.6l0.2-0.8
						c-0.1,0.2,0.2,0.4,0.4,0.5c-0.1-0.1,0.4-0.2,0.5-0.3l-0.3,0c0.6-0.2,0.1-1,0.6-1.3c0,0.1,0.2,0.7,0.5,0.6c0-0.3-0.2-1.5,0.2-2
						l0.2,0.1l0.2-0.4c0,0.5-0.1,1.6-0.3,2.1c0.3,0,0.2,0.1,0.4,0c0.2,0.1,0,0.3-0.1,0.4l0.7-0.3c-0.2-0.3,0.3-0.6,0.2-0.8L14.9,34
						c-0.2-0.3-0.1-1.1,0.4-1.3c0.2,0,0.2,0.6,0.3,0.7c0-0.1,0.3-0.5,0.4-0.4l-0.1,0.3c0.3,0,0.2-0.6,0.7-0.5c0.1,0,0.5,0.2,0.5,0
						c-0.4-0.2-1-1.2-1-1.5c0.1,0,0.8,0,1,0.1c0.3,0.2,0.1,0.8,0.4,0.9c0-0.1,0-0.2,0-0.3c0.2,0,0.1,0.3,0.3,0.1
						c-0.1-0.3,0.5-0.3,0-0.3c0.2-0.2,0.3-0.1,0.6-0.3c-0.2-0.1-0.1-0.8,0.1-1c0,0.1,0.1,0.1,0.2,0.2c0.5-0.3,0.9-0.3,1.3-0.6
						c0.1,0,0.4,0,0.3,0.2c0-0.1,0-0.2,0.2-0.3c0.4,0.1-0.3,0.2,0.1,0.4c-0.1-0.2,0.2-0.5,0.4-0.7c-0.2-0.2-0.5,0.2-0.6,0.5
						c-0.2-0.4-0.1-1,0.3-1.4c0.3-0.3,0.3,0.1,0.3,0c0.8-0.4,0.2-1,1-1.1c0.4,0.1,0.3,0.5,0.4,0.6c-0.3,0.3-0.6,0.1-0.8,0.3l0.3,0
						c-0.1,0.1-0.2,0.3-0.4,0.3c0.3,0.1,1.3-0.7,1.9-0.8c0.1-0.1,0.2-0.3,0-0.4l-0.2,0.1c-0.3-0.1,0.2-0.5-0.1-0.4
						c0.2-0.3,0.3-0.6,0.7-0.7l0.2,0.2c-0.1-0.1-0.3,0-0.4,0.1c0.1-0.2,0.7,0.1,0.7-0.4l-0.3,0c0.2-0.3,0.3-0.7,0.6-0.8
						c-0.3-0.2-0.1,0.1-0.4-0.1c0.4,0.3-0.8,0.4-0.2,0.7c-0.4-0.2-0.5,0.1-0.9-0.1c0.1,0.1,0.2,0.1-0.1,0.2c0,0,0,0.1,0,0.1
						c0,0,0,0,0,0l0,0c0,0,0,0,0,0c0.1,0,0.2,0,0.2,0.1c0,0.3-0.4,0.5-0.5,0.7c-0.2,0,0-0.1-0.1-0.2l-0.1,0.3
						c-0.1-0.2-0.6-0.1-0.3-0.4l-0.3,0.2c-0.2,0-0.5,0.1-0.6,0.3c-0.2,0-0.2,0.4-0.2,0.2l-0.4,0.4l0,0c-0.5,0.3-0.8,0.9-1.6,0.9
						c-0.1,0.1-0.3,0.3-0.6,0.4l-0.2-0.1c-0.2,0.2-0.7,0.2-0.7,0.4c-0.5-0.3-1.1,0.5-1.5,0.6l0.1,0.2c-0.3,0.1-0.5,0.3-0.7,0.6
						l0.1,0.2c-0.2,0.3-0.8,0.3-1.2,0.5c0-0.1,0.1-0.1,0.2-0.1c-0.8-0.1-0.9,1-1.5,0.9c-0.1,0.1-0.2,0.2-0.3,0.2c0,0,0,0,0,0
						c0,0,0,0,0,0c-0.1,0-0.1,0-0.2,0c0.1,0,0.1,0,0.2,0c-0.1,0.1-0.2,0.2-0.3,0.3l-0.2-0.2c0,0,0,0,0,0c-0.2,0,0,0.2,0.1,0.3
						c0,0.1-0.1,0.2-0.1,0.2c-0.3-0.3-0.3,0.3-0.6,0c0,0.2-0.6,0.5-0.4,0.9c0,0-0.1,0,0-0.1c-0.2,0-0.3,0.1-0.4,0.3l-0.2-0.2
						l-0.1,0.5c-0.3,0-0.4-0.1-0.4-0.4c-0.3,0.6-0.3,0.3-0.5,0.9l-0.1-0.2C9.2,35,9.2,35.4,9,35.3c-0.5-0.1-1.6,0.9-2.6,1.1
						c0.5,0.4-0.5,0-0.3,0.4c-0.1-0.1-0.3-0.1-0.2-0.3c-0.4,0.4-0.7,0.2-0.8,0.7c-0.1-0.1,0-0.2-0.1-0.3c0,0-0.1,0.2-0.2,0.1
						c-0.1,0,0-0.1,0-0.2c-0.4,0.3-0.2,0.7-0.1,1c-0.3,0-0.4,0.1-0.4,0.4c-0.1-0.1-0.3-0.1-0.1-0.3c-0.2,0.1-1,0.4-0.9,0.7
						c-0.1,0-0.2,0.1-0.2,0.2c-0.3,0.2-0.4,0.2-0.7,0.4l0.1,0c0,0.1,0,0.2,0,0.3l0.4,0.7C3,40,3.1,40,3.3,39.9l0,0
						c0.8-0.1,0.2-0.3,1-0.3l-0.2-0.2c-0.2-0.5,0.7-0.1,0.9-0.4l-0.2,0C5,38.7,5.7,39.2,6,39.2c0.1,0,0,0.1-0.1,0.2
						c0.7,0-0.1-0.3,0.2-0.6c0.2,0.1,0.1,0.4,0.4,0.3c0.2,0,0.5-0.9,1-0.8c-0.1-0.1-0.3-0.1-0.2-0.3c0.2-0.2,1,0,1-0.5
						c0.1,0,0.1,0,0.1,0.1C8.6,37.2,9,36.9,9,36.6c0.6,0.6,1.1-1.1,1.4-0.4l0.6-0.4l0,0.1c0.4-0.2,0.5-0.4,0.5-0.7
						c0.1,0,0.1,0.1,0.1,0.1c0.7-0.2,0.7-0.3,1-0.9l0.2,0.2c0.1-0.2,1-0.2,1.5-0.7c0,0,0,0.1,0,0.1c0.5-0.6,1.9-0.3,1.7-1.2l0.3-0.4
						c-0.6,0.3-0.1-0.4-0.4-0.4c0.2-0.2,0.7-0.1,0.5,0.1l-0.1,0c0.1,0.5,0.8-0.3,0.9,0c1.1-0.7,2.3-1.1,3.3-1.6l-0.3-0.2l0.4-0.2
						c0.1,0,0.3,0.2,0,0.3c0.2,0.1,0.3-0.4,0.3-0.5c0.6-0.2,0,0.5,0.2,0.4l0.2-0.1l-0.1,0c0.1-0.2,0-0.4,0.3-0.5
						c0.2,0,0.2,0.1,0.3,0.1c0,0,0,0,0.1-0.1l0.5-0.2l-0.3-0.1c0.1-0.2,0.4-0.2,0.1-0.4c0.6,0.3,1.8-0.8,2-0.8
						c0.2-0.3,0.4-0.5,0.8-0.7c-0.1,0-0.3-0.3,0-0.4c0.2,0.6,0.7-0.1,1.2,0.2c-0.4-0.2,0.8-0.6,0.2-0.8c0.3-0.1,0.1,0.2,0.4,0.2
						c0.4-0.6,1.4-0.6,2-1.1c0-0.1-0.2-0.1-0.1-0.3l0.6,0.2c0.1-0.1-0.1-0.5,0.3-0.4c-0.1,0-0.2-0.1-0.1-0.2c1.6-0.5,2.7-2,4.5-2.1
						c-0.3,0-0.2-0.1,0-0.2c-0.1,0-0.1-0.2-0.2-0.3l0.8-0.1c-0.1-0.3,0.6-0.4,0.5-0.7l-0.2,0.2c0.1-0.5-0.8-0.5-1-0.9
						c-0.1,0.5-1.1-0.1-1.2,0.7c-0.2,0,0-0.2-0.1-0.2c0,0.2-0.1,0.4-0.4,0.4l0-0.1c-0.7,0.5-1.1,0.5-2,0.9l0.2,0.2
						c-0.2,0.1-0.3,0-0.4,0c0,0.4,0.5-0.3,0.5,0.2c-0.5-0.3-1.3,0.7-1.7,0.4c-0.3,0.2,0.2,0.2-0.1,0.3l-0.1-0.1l0,0.2
						c-0.2,0.1-0.4,0-0.4-0.1c0.1,0,0.1-0.1,0.1-0.1c-0.3,0-0.6,0.4-0.7,0.4l0.3-0.1c-0.7,0.6-1.7,0.9-2.3,1.6l0.1,0.1
						c-0.4,0.5-0.5,0.2-1.1,0.6l0,0c-0.1,0.2-0.2,0.3-0.4,0.4c0.1-0.2-0.4-0.1-0.3-0.3c-0.5,0.5-0.2,0.3-0.4,0.9l-0.2-0.1
						c0,0.2,0,0.3-0.3,0.5c0.2-0.3-0.3-0.1-0.2-0.5c-0.8,0-0.7,0.9-1.3,0.6c0,0.6,0.7-0.1,0.6,0.1c0.2,0.1,0,0.5-0.3,0.5
						c-0.2,0.1-0.7-0.4-1.2-0.1c0.1,0,0-0.1,0.1-0.1c-0.3,0-0.3,0.4-0.6,0.3c0,0.3-0.3,0.2-0.2,0.5l0.4-0.4
						c-0.2,0.2-0.2,0.8-0.8,0.9c0-0.1,0.1-0.3,0.1-0.4c-0.2,0-0.2,0.2-0.4,0.2c-0.2-0.4,0.5-0.4,0.7-0.8c-0.2-0.1-0.4,0.6-0.5,0.1
						c0.1,0.6-0.5,0.2-0.7,0.8l-0.1-0.2c0,0.1-0.1,0.2-0.2,0.3l0-0.4c-0.1,0.4-0.7,0.1-0.9,0.4c0.6-0.3,0.3,0.2,0.6,0.2
						c-0.5,0.7-0.7-0.3-1.4,0.3c0.1-0.1,0.5-0.1,0.4,0.1c-0.2,0-0.4,0.1-0.6,0c-0.5,0.3,0.2,0.2,0.1,0.4c-0.3-0.1-0.2,0.2-0.4,0.5
						l-0.1-0.2c-0.7,0.2,0.1,0.5-0.5,0.7l0.1-0.4l-0.2,0.2l-0.1-0.3C15.4,31,15.3,31,15,31.1c0.2,0.1,0.2,0.4-0.1,0.6
						c-0.2,0,0-0.3-0.4,0c0-0.2,0-0.4,0.3-0.3c0-0.1,0-0.2,0-0.3c-0.3,0-0.5,0.2-0.6,0.3c0.1,0,0.1,0,0.2,0L14,32
						c-0.1,0-0.1-0.1-0.1-0.2c-0.1,0.1-0.1,0.2-0.3,0.3c-0.1-0.2-0.2-0.4,0-0.6L13.2,32c-0.1-0.1-0.4,0-0.3-0.2
						c-0.3,0.1-0.5,0.7-0.9,0.8c0,0,0,0.1-0.1,0.2c-0.4,0.2-0.8,0.1-1.1,0.6l-0.4-0.2c-0.3,0.3,0.5,0.2,0.1,0.6
						c-0.3,0.3-0.3-0.2-0.5-0.2c-0.1,0.3-0.2,0.8-0.7,0.7C9.3,34.3,9.4,34.3,9.5,34.2z M5.6,36.7c0.1-0.1,0.1-0.3,0.3-0.2
						C5.9,36.8,5.7,36.7,5.6,36.7z M5.6,38.6c0,0.1-0.1,0.1-0.3,0.1C5.3,38.6,5.4,38.6,5.6,38.6z M21.7,27.2L21.7,27.2
						C21.5,27.2,21.5,27.2,21.7,27.2z M22.1,27.1C22.1,27,22.1,27,22.1,27.1c0,0-0.1,0-0.2,0.1C22,27.2,22,27.2,22.1,27.1z
						 M21.8,29.6l-0.1,0C21.9,29.4,21.8,29.5,21.8,29.6z"/>
					<path d="M5,39.3C5,39.3,5,39.2,5,39.3C4.9,39.2,4.9,39.3,5,39.3z"/>
					<path d="M11.9,32.7L11.9,32.7C11.9,32.6,11.9,32.6,11.9,32.7L11.9,32.7z"/>
					<path d="M17.6,32.1c-0.1,0-0.2,0-0.2,0C17.4,32.1,17.4,32.1,17.6,32.1z"/>
					<path d="M23.8,25.6l-0.2,0.2c0.1-0.1,0.2-0.1,0.2-0.1C23.8,25.7,23.7,25.6,23.8,25.6z"/>
					<path d="M26.6,25.7C26.6,25.6,26.6,25.7,26.6,25.7l0-0.2C26.4,25.6,26.4,25.7,26.6,25.7z"/>
					<path d="M24.4,26.1c0.1,0.2,0.2,0,0.4-0.1c0,0,0,0,0,0C24.7,25.8,24.5,26,24.4,26.1z"/>
					<path d="M24.8,26c0,0,0.1-0.1,0.1-0.1C24.9,25.8,24.9,25.9,24.8,26z"/>
					<path d="M22.5,26.7c0.1,0-0.1-0.3,0-0.2C22.4,26.2,22.1,27,22.5,26.7z"/>
					<polygon points="24.9,26.6 24.7,26.5 24.7,26.7 					"/>
					<path d="M23.5,27.2l0.3-0.1c0,0,0-0.1,0-0.1C23.7,27.1,23.5,27.2,23.5,27.2z"/>
					<path d="M23.8,27c0.1,0,0.2-0.1,0.2-0.2C24,26.9,23.9,27,23.8,27z"/>
					<polygon points="24.6,26.9 24.5,26.9 24.3,27 					"/>
					<path d="M20.7,28.8l-0.2,0.2c0,0.1,0.1,0.1,0.2,0C20.7,29,20.8,28.9,20.7,28.8z"/>
					<path d="M21.9,28.9c-0.1,0-0.1,0-0.2-0.1l0.1,0.3L21.9,28.9z"/>
					<path d="M21.1,29.5c0,0.1-0.3,0.5,0.1,0.2C21.2,29.6,21.4,29.4,21.1,29.5z"/>
					<polygon points="16.7,31.6 16.8,31.6 16.5,31.1 					"/>
					<path d="M13.6,34.9c0.4-0.1-0.1-0.3,0.3-0.4c0-0.1-0.3,0-0.3-0.1C13.4,34.6,13.3,34.6,13.6,34.9z"/>
					<path d="M13.6,34.4c0,0,0-0.1,0.1-0.1C13.6,34.3,13.6,34.4,13.6,34.4z"/>
					<polygon points="35.1,22.1 35.3,22.1 35.1,22 					"/>
					<path d="M35.3,21.5l0.2,0.3l0-0.3C35.4,21.5,35.4,21.6,35.3,21.5z"/>
					<path d="M4.6,36.5L4.6,36.5c0.1,0.1,0.2,0.1,0.3,0.1L4.6,36.5z"/>
					<polygon points="7.7,35 7.6,35 7.9,35.2 					"/>
					<path d="M9.9,33.2c-0.1,0-0.2,0.2-0.3,0.2C9.8,33.3,10.1,33.5,9.9,33.2z"/>
				</g>
			</g>
		</g>
	</g>
</g>
<g>
	<g>
		<g>
			<g>
				<g>
					<path d="M45.7,25.6c0.1-0.1-0.1-0.3-0.1-0.4C45.4,25.4,45.7,25.6,45.7,25.6z"/>
					<polygon points="43.9,27.5 43.9,27.3 43.7,27.8 					"/>
					<path d="M41.9,28.7c0.5,0.3,0.7-0.5,1.1-0.6l0.1,0.1l-0.1-0.5C42.7,28,42.3,28.6,41.9,28.7z"/>
					<path d="M40.3,28.3c0.2,0.1-0.1,0.3,0.3-0.1c0,0,0,0-0.1,0C40.4,28.3,40.4,28.3,40.3,28.3z"/>
					<path d="M40.5,28.2C40.7,28.1,40.3,28.2,40.5,28.2L40.5,28.2z"/>
					<path d="M39.6,28.9l0.2-0.3c-0.1-0.1-0.4,0.1-0.3-0.1C39.2,28.8,39.3,28.9,39.6,28.9z"/>
					<path d="M39.5,29.4l0.1-0.2C39.6,29.2,39.5,29.2,39.5,29.4z"/>
					<path d="M39.8,28.9l-0.2,0.3c0.1,0,0.2,0.2,0.1-0.1C39.8,29.3,39.8,29.1,39.8,28.9z"/>
					<path d="M40.1,28.9c0.2,0,0.5-0.1,0.3,0.3C40.8,28.8,40.5,28.5,40.1,28.9z"/>
					<path d="M42.1,29.2l0.3,0l0.1-0.3C42.5,29.1,42,29.1,42.1,29.2z"/>
					<path d="M37.7,29.7c0,0.1,0.3,0.2,0.3,0.3l0.1-0.2C38.1,29.8,37.8,29.9,37.7,29.7z"/>
					<path d="M38.1,30.1l-0.2,0.4C38.2,30.3,38.2,30.2,38.1,30.1z"/>
					<polygon points="39.8,30 40.1,29.3 39.7,30 					"/>
					<polygon points="36.6,30.4 36.6,30.1 36.5,30.6 					"/>
					<path d="M35.8,31c0-0.3-0.4-0.2-0.3-0.4c-0.2,0.2-0.3,0.4-0.3,0.7C35.3,31,35.5,30.9,35.8,31z"/>
					<path d="M35,31.6c0.1-0.1,0.1-0.2,0.1-0.4C35.1,31.3,35.1,31.4,35,31.6z"/>
					<path d="M37.3,30.7c-0.1,0-0.2-0.2-0.4-0.1l0.3,0.2C37.2,30.7,37.3,30.7,37.3,30.7z"/>
					<path d="M37.2,30.8L37.2,30.8c-0.1,0.1-0.2,0.1-0.3,0.1C37,30.9,37.1,30.8,37.2,30.8z"/>
					<path d="M37.4,30.7L37.4,30.7C37.4,30.7,37.4,30.7,37.4,30.7z"/>
					<path d="M38.8,30.2c-0.1,0.3-0.4,0.7,0.1,0.7C39,30.6,38.7,30.6,38.8,30.2z"/>
					<path d="M37.7,30.9l0.4-0.1c-0.1-0.1-0.2-0.1-0.1-0.3L37.7,30.9z"/>
					<polygon points="37.6,31.1 37.7,30.9 37.6,31 					"/>
					<path d="M35.7,31.5c-0.1,0.2-0.2,0.3-0.4,0.4c0.2-0.1,0.4-0.1,0.6-0.3C35.9,31.6,35.9,31.4,35.7,31.5z"/>
					<path d="M36.5,31.2L36.5,31.2C36.5,31.2,36.5,31.2,36.5,31.2z"/>
					<polygon points="33.7,33 33.7,33 33.7,33 					"/>
					<path d="M36,31.7c0.2,0,0.2-0.2,0.2-0.3C36.2,31.5,36.1,31.6,36,31.7C36,31.7,36,31.8,36,31.7z"/>
					<path d="M34.6,32c0.1,0,0.2,0,0.3,0C34.8,32,34.6,31.9,34.6,32z"/>
					<path d="M36.4,31.2L36.4,31.2C36.3,31.1,36.3,31.1,36.4,31.2z"/>
					<path d="M36.4,31.2c0,0.1-0.1,0.2-0.1,0.3C36.3,31.4,36.4,31.3,36.4,31.2C36.4,31.2,36.4,31.2,36.4,31.2z"/>
					<path d="M34.2,35.1c-0.1-0.3,0.1-0.7,0.6-0.6c0.2-0.4-0.5-1.1-1.1-1.4c0.1,0.1,0.1,0.2-0.1,0.6c0.2,0.1,0.9-0.1,0.8,0.3
						C34.1,34.3,34,34,33.7,34c0.4,0.2-0.3,0.8,0.1,1.2l0.3-0.4C34.2,34.9,34.1,35.1,34.2,35.1z"/>
					<path d="M34.3,32.7l0.1-0.1c-0.2,0-0.3,0-0.7-0.1c-0.1,0.3-0.1,0.4-0.1,0.5L34.3,32.7L34.3,32.7z"/>
					<path d="M35,32.2c0.1,0.3-0.2,0.6,0.2,0.8c0.4-0.3,0.1-0.4,0.3-0.7C35,32.8,35.6,32.1,35,32.2c0.1-0.1,0.2-0.2,0.3-0.3
						C35.2,32,35.1,32,35,32l0,0l0,0l0,0c0,0,0.1,0,0,0l0,0C35,32.1,35,32.2,35,32.2c-0.2,0.1-0.1-0.1,0-0.1l0,0l0,0l-0.5,0.5
						C34.6,32.5,34.8,32.4,35,32.2z"/>
					<path d="M39,31.7C39,31.6,39,31.6,39,31.7C38.9,31.7,38.9,31.7,39,31.7z"/>
					<path d="M38.7,31.7c0-0.1,0-0.2,0.2-0.3c0.2,0,0.1,0.1,0.1,0.2c0-0.1,0.2-0.4-0.2-0.4l0,0.1c-0.3,0.1-0.8-0.1-0.8-0.2
						C38.2,31.4,38.3,31.5,38.7,31.7z"/>
					<path d="M36.9,32l-0.4,0.5l0.4,0.1l-0.1-0.1C37.1,32.3,36.9,32.1,36.9,32z"/>
					<polygon points="33.5,32.9 33.4,32.6 33.4,33.2 					"/>
					<polygon points="32.9,33.3 32.7,33.1 32.7,33.3 					"/>
					<path d="M9.7,47.7l0.1-0.2C9.8,47.6,9.8,47.7,9.7,47.7z"/>
					<path d="M8.6,48.4l0,0.1C8.7,48.4,8.7,48.4,8.6,48.4z"/>
					<path d="M16.4,43.5c-0.4-0.1-0.8-0.3-0.6,0l0.2,0.2C16.1,43.6,16.2,43.5,16.4,43.5z"/>
					<path d="M6.1,52.2l0.1,0c0-0.1,0-0.2,0-0.4C6.1,52,6.1,52.1,6.1,52.2z"/>
					<path d="M6.6,53.4l-0.4,0C6.3,53.4,6.4,53.4,6.6,53.4z"/>
					<path d="M15.6,43.7l0-0.4C15.3,43.5,15.5,43.6,15.6,43.7z"/>
					<path d="M26,37.7c-0.3,0-0.4,0.1-0.6,0.1C25.8,37.8,26.1,38,26,37.7z"/>
					<path d="M11.1,50.9c0.1-0.1,0.1-0.2,0-0.2C11.1,50.8,11,50.9,11.1,50.9z"/>
					<path d="M24.9,38.2c0.1,0,0.1,0,0.1,0c0.1-0.1,0.2-0.3,0.4-0.3C25.2,37.8,25,37.8,24.9,38.2z"/>
					<path d="M37.5,30.5C37.6,30.5,37.6,30.5,37.5,30.5C37.6,30.5,37.6,30.5,37.5,30.5z"/>
					<path d="M45.6,29.4c-0.1,0.1-0.2,0.1-0.2,0.2C45.4,29.6,45.5,29.5,45.6,29.4z"/>
					<path d="M30.1,34.9C30.2,34.8,30.1,34.8,30.1,34.9L30.1,34.9z"/>
					<path d="M31.5,35.6c0,0,0,0.1,0,0.2C31.5,35.7,31.4,35.6,31.5,35.6z"/>
					<path d="M24.5,40.8C24.5,40.8,24.5,40.8,24.5,40.8C24.6,40.8,24.6,40.8,24.5,40.8z"/>
					<path d="M30.4,34.9c-0.1,0-0.2,0-0.2,0C30.2,34.9,30.3,34.9,30.4,34.9z"/>
					<path d="M30.3,34.8c0.1,0,0.1,0,0.1,0C30.4,34.7,30.4,34.6,30.3,34.8z"/>
					<path d="M29.9,35c0.1-0.1,0.2-0.1,0.2-0.1c0,0-0.1,0-0.1,0C30,34.9,30,35,29.9,35z"/>
					<path d="M26.3,38.5C26.3,38.5,26.3,38.5,26.3,38.5C26.4,38.3,26.4,38.3,26.3,38.5z"/>
					<path d="M14.4,48.7C14.4,48.7,14.4,48.7,14.4,48.7L14.4,48.7L14.4,48.7z"/>
					<path d="M14,49.2c0-0.5,0.2-0.5,0.4-0.5L13.7,48L14,49.2z"/>
					<path d="M12.3,46l-0.5,0c0.2-0.7,0.6-0.7,0-0.9c0.5,0.9-1.3,1-0.9,1.8l-0.3,0c0.1,0,0.1-0.1,0.1-0.1c-0.7-0.1,0,0.8-0.6,1.1
						c-0.2,0.1-0.5,0-0.4-0.2l-0.3,0.5c-0.1,0.1-0.2-0.1-0.1-0.2l-0.7,0.5l0,0c0,0.2-0.1,0.5-0.2,0.7c-0.3,0,0-0.1-0.1-0.2l-0.3,0.5
						c-0.3-0.1-0.1-0.5,0.2-0.7c-0.9-0.6-0.2,0.4-1.3,0.4l0.3-0.3c-0.5-0.3-0.7,0-1.3,0c0.2,0.1,1.3,0.3,1,0.7
						c-0.2,0-0.3,0.1-0.5,0.4C6.4,49.6,6.2,49.8,6,50l-0.2-0.4c-0.2,0.3-0.1,0.5-0.1,0.8c-0.4,0.2-0.6-0.1-0.9-0.3
						c-0.6,0.3,0.7,0.3,0.1,0.7c-0.5,0.1-0.8,0.5-1.1,1.1c-0.4,0.1-0.1-0.3-0.3-0.3L3.3,52c-0.1,0-0.1-0.1-0.1-0.1
						c-0.2,0.3,0.2,0.4-0.1,0.8c0.1,0.2-0.1,0.2-0.4,0.2l1.2,1.9c0.4,0,0.8,0,0.9-0.4c0.2,0,0.1,0.3,0.2,0.4
						c0.4-0.7,0.4-0.6,0.6-1.3l0.6,0c-0.5-0.1-0.3-0.7-0.1-1.2C5.8,52.1,5.7,52,5.6,52L6,51.4c0.1,0,0.1,0.2,0.2,0.4
						c0-0.1,0-0.1,0-0.2c0.3,0,0.3,0.3,0.3,0.6c-0.1,0-0.2-0.1-0.4-0.1c0,0.3,0,0.7,0.2,0.9c0-0.1,0.1-0.2,0.1-0.2
						c0,0.1,0,0.2,0.1,0.2c0,0,0.1-0.1,0.1-0.3l0.4,0.4L7,53l0.9-0.2c0.3-0.8,0.3-1.8,1-2.5c0,0.5,0.3,0.6,0.5,1
						c-0.5-0.3-0.6,0.6-1,0.8c0.3-0.1,0.3,0.1,0.3,0.2l0.6-0.9c0.2,0.3,0.3,0.1,0.6,0.1c-0.5-0.5,0.3-0.8,0.5-1.2
						c0.2,0.2,0.2,0.5-0.2,0.7c0.7,0.2,0.1-1.1,0.8-0.9c-0.1,0.1-0.2,0.1-0.1,0.2c0.1-0.3,0.7-0.5,0.7-0.2l-0.1,0.1
						c0.7-0.3,1.9-1.2,1.7-1.8c0,0.1,0.3,0.7,0.3,0.8l0-2.5c0.2,0.5,1.3,1.4,0.9,2c0.2,0,0.4-0.1,0.6-0.4c-0.1,0-0.7-0.5-0.6-0.6
						c0.7,0.3,0.4,0.1,1.2,0.3c-0.2,0-0.5-0.8-0.2-1c0,0.1,0.5,0.7,0.4,0.8l0.2-1.1c-0.1,0.2,0.3,0.6,0.6,0.7
						c-0.1-0.1,0.5-0.3,0.7-0.5l-0.4,0c0.8-0.3,0.1-1.4,0.8-1.8c0,0.2,0.4,1,0.8,0.9c-0.1-0.5-0.4-2.2,0-2.9l0.2,0.1l0.3-0.5
						c0.1,0.7,0,2.4-0.2,3.1c0.4,0,0.2,0.2,0.6-0.1c0.3,0.1,0,0.4-0.1,0.5l1-0.4c-0.3-0.4,0.4-0.9,0.2-1.2l-0.7,1
						c-0.3-0.4-0.2-1.6,0.5-1.9c0.3,0.1,0.3,0.8,0.5,1c0-0.2,0.4-0.7,0.6-0.6l-0.1,0.4c0.5-0.1,0.2-0.9,0.9-0.8
						c0.2-0.1,0.8,0.3,0.6,0c-0.5-0.3-1.5-1.8-1.6-2.3c0.1,0,1.1,0,1.4,0.1c0.5,0.2,0.2,1.1,0.6,1.3c-0.1-0.1,0-0.3,0-0.4
						c0.2,0,0.2,0.4,0.5,0.1c-0.2-0.5,0.7-0.4-0.1-0.5c0.3-0.3,0.4-0.1,0.8-0.4c-0.3-0.2-0.2-1.2,0-1.5c0,0.1,0.2,0.2,0.3,0.3
						c0.7-0.4,1.2-0.4,1.8-0.8c0.1,0.1,0.5,0,0.5,0.3c0-0.1,0-0.3,0.2-0.5c0.6,0.1-0.4,0.3,0.2,0.6c-0.1-0.3,0.3-0.7,0.5-1
						c-0.3-0.3-0.7,0.3-0.9,0.6c-0.3-0.5-0.2-1.4,0.3-2c0.4-0.5,0.4,0.2,0.5,0.1c1-0.5,0.3-1.5,1.3-1.6c0.5,0.1,0.4,0.7,0.7,0.9
						c-0.3,0.4-0.8,0.2-1.1,0.4l0.5-0.1c-0.1,0.2-0.3,0.5-0.5,0.5c0.5,0.1,1.7-1,2.6-1.1c0.1-0.2,0.2-0.5,0-0.5l-0.2,0.2
						c-0.4-0.1,0.2-0.7-0.2-0.6c0.2-0.4,0.4-0.9,0.9-1l0.3,0.3c-0.1-0.1-0.4-0.1-0.5,0.1c0.1-0.3,1,0.1,0.9-0.5l-0.5-0.1
						c0.2-0.4,0.3-1.1,0.8-1.2c-0.4-0.3-0.1,0.1-0.6-0.2c0.6,0.4-1,0.6-0.3,1c-0.6-0.3-0.6,0.1-1.3-0.1c0.1,0.1,0.3,0.2-0.1,0.3
						c0,0,0,0.1,0,0.2c0,0,0,0,0,0l0,0c0,0,0,0,0,0c0.1,0,0.2,0,0.3,0.1c0,0.4-0.5,0.7-0.6,1c-0.2,0.1,0-0.2-0.2-0.3l-0.1,0.4
						c-0.2-0.3-0.8-0.2-0.5-0.6l-0.4,0.2c-0.3,0-0.7,0.1-0.9,0.4c-0.2,0.1-0.3,0.6-0.3,0.3L27.2,37l-0.1-0.1c-0.7,0.4-1,1.3-2.1,1.2
						c-0.2,0.2-0.3,0.4-0.8,0.6l-0.2-0.2c-0.2,0.3-1,0.3-1,0.6c-0.7-0.5-1.5,0.7-2,0.9l0.2,0.3c-0.4,0.2-0.6,0.5-1,0.9l0.2,0.3
						c-0.2,0.5-1.1,0.4-1.6,0.8c0-0.1,0.1-0.2,0.3-0.2c-1.1-0.2-1.2,1.4-2.1,1.3c-0.1,0.2-0.2,0.2-0.4,0.2c0,0,0,0,0,0
						c0,0,0,0-0.1,0c-0.1,0-0.2,0-0.3,0c0.1,0,0.2,0,0.3,0c-0.1,0.1-0.3,0.2-0.4,0.4L16,43.7c0,0,0,0,0,0c-0.2,0-0.1,0.2,0.2,0.4
						C16,44.3,16,44.4,16,44.5c-0.4-0.4-0.4,0.5-0.9,0c0,0.3-0.8,0.7-0.5,1.3c0-0.1-0.1-0.1,0-0.1c-0.2,0.1-0.5,0.1-0.6,0.4
						l-0.3-0.3l-0.1,0.8c-0.4-0.1-0.6-0.1-0.5-0.6c-0.3,0.9-0.4,0.5-0.7,1.3L12.2,47c-0.2,0.1-0.3,0.7-0.5,0.5
						C11,47.3,9.5,48.8,8.1,49c0.7,0.6-0.7,0-0.4,0.6c-0.2-0.1-0.4-0.1-0.3-0.4c-0.5,0.5-1,0.2-1.1,1c-0.2-0.1,0-0.3-0.2-0.4
						c0,0.1-0.1,0.3-0.2,0.2c-0.1-0.1,0-0.2,0-0.3c-0.6,0.4-0.3,1,0,1.5c-0.4-0.1-0.6,0.1-0.6,0.5c-0.2-0.1-0.5-0.2-0.2-0.5
						c-0.2,0.1-1.4,0.5-1.1,0.9C4,52,3.8,52.3,3.8,52.3c-0.5,0.3-0.5,0.2-0.9,0.6l0.2,0c0,0.2,0,0.3,0,0.4l0.7,1.1
						c0.1-0.1,0.4-0.1,0.6-0.2l0,0.1c1-0.1,0.2-0.4,1.3-0.5l-0.2-0.3c-0.3-0.7,1-0.1,1.3-0.6l-0.3-0.1c0.1-0.4,1.3,0.5,1.6,0.4
						c0.1,0,0,0.1-0.1,0.2c0.9,0-0.2-0.5,0.3-0.9c0.2,0.2,0.2,0.6,0.6,0.5c0.3,0.1,0.5-1.3,1.3-1.2c-0.2-0.1-0.4-0.2-0.3-0.5
						c0.3-0.3,1.4,0,1.4-0.7c0.1,0,0.1,0.1,0.1,0.1c0.2-0.3,0.7-0.8,0.7-1.2c0.9,0.9,1.4-1.6,2-0.6l0.8-0.6l0,0.1
						c0.6-0.3,0.6-0.6,0.7-1c0.2,0,0.1,0.1,0.2,0.2c0.9-0.3,1-0.4,1.3-1.3l0.3,0.3c0.1-0.3,1.4-0.2,2-1c0,0,0,0.1,0,0.2
						c0.6-0.9,2.6-0.4,2.2-1.7l0.4-0.6c-0.8,0.4-0.2-0.6-0.6-0.6c0.2-0.2,1-0.1,0.6,0.2l-0.1,0c0.2,0.7,1.1-0.4,1.3,0.1
						c1.4-0.9,3.1-1.5,4.4-2.3l-0.4-0.4l0.5-0.3c0.2,0,0.4,0.3,0,0.5c0.3,0.2,0.4-0.6,0.4-0.7c0.8-0.2,0.1,0.7,0.3,0.6l0.3-0.2
						l-0.1,0c0.1-0.3,0-0.5,0.4-0.8c0.3-0.1,0.3,0.2,0.4,0.2c0,0,0.1,0,0.2-0.1l0.6-0.3l-0.5-0.2c0.2-0.3,0.6-0.3,0-0.6
						c0.8,0.4,2.4-1.1,2.7-1.1c0.2-0.5,0.6-0.7,1.1-1c-0.2,0-0.5-0.4-0.1-0.6c0.4,0.9,0.9-0.1,1.6,0.4c-0.5-0.2,1.1-0.8,0.3-1.1
						c0.4-0.1,0.2,0.3,0.6,0.4c0.6-0.8,1.8-0.8,2.7-1.5c-0.1-0.1-0.3-0.2-0.2-0.5l0.9,0.2c0.2-0.2-0.2-0.8,0.4-0.6
						c-0.1-0.1-0.3-0.2-0.2-0.3c2.2-0.6,3.6-2.8,6.1-3c-0.4-0.1-0.2-0.2,0-0.3c-0.2,0-0.2-0.3-0.3-0.4l1.1-0.1
						c-0.1-0.5,0.8-0.6,0.7-1l-0.2,0.2c0-0.7-1.1-0.8-1.5-1.4c0,0.8-1.5-0.2-1.6,1c-0.2,0,0-0.3-0.2-0.4c0,0.4-0.2,0.5-0.6,0.6
						l0-0.1c-0.9,0.7-1.5,0.7-2.7,1.2l0.3,0.3c-0.3,0.1-0.4,0-0.5,0c0,0.6,0.7-0.4,0.7,0.3c-0.7-0.4-1.7,1-2.3,0.5
						c-0.4,0.2,0.3,0.3,0,0.5l-0.2-0.1l0.1,0.3c-0.3,0.1-0.5-0.1-0.6-0.2c0.1,0,0.1-0.1,0.2-0.2c-0.4,0-0.8,0.6-1,0.6L37,31
						c-0.9,0.8-2.3,1.3-3,2.3l0.2,0.1c-0.6,0.7-0.7,0.2-1.4,0.8l0-0.1c-0.1,0.2-0.2,0.4-0.5,0.6c0.1-0.3-0.6-0.1-0.4-0.4
						c-0.6,0.8-0.3,0.5-0.5,1.3l-0.3-0.2c0,0.3,0,0.4-0.4,0.8c0.2-0.4-0.5-0.2-0.3-0.7c-1.2,0-0.9,1.3-1.8,0.8c0,0.9,1-0.1,0.8,0.2
						c0.3,0.1,0,0.7-0.3,0.8c-0.3,0.2-1-0.6-1.7-0.1c0.1,0,0-0.1,0.1-0.1c-0.4,0-0.4,0.5-0.8,0.5c0.1,0.5-0.4,0.2-0.2,0.8l0.6-0.5
						c-0.3,0.4-0.2,1.1-1,1.2c0-0.1,0.1-0.4,0.1-0.5c-0.3,0-0.3,0.3-0.5,0.3c-0.3-0.5,0.7-0.6,0.8-1.2c-0.3-0.1-0.5,0.8-0.6,0.1
						c0.2,0.9-0.7,0.3-0.9,1.1l-0.2-0.3c0,0.1-0.1,0.3-0.2,0.4l0-0.5c-0.2,0.6-0.9,0.2-1.2,0.6c0.7-0.5,0.4,0.3,0.8,0.3
						c-0.7,1-1-0.5-2,0.3c0.1-0.1,0.6-0.1,0.5,0.1c-0.2,0.1-0.6,0.1-0.8,0c-0.6,0.5,0.3,0.2,0.1,0.6c-0.5-0.2-0.2,0.4-0.5,0.7
						l-0.2-0.3c-0.9,0.3,0.2,0.8-0.7,1l0-0.6l-0.3,0.3l-0.1-0.4c-0.2,0.5-0.4,0.5-0.9,0.7c0.2,0.2,0.3,0.6,0,0.8c-0.3,0,0-0.4-0.5,0
						c0-0.3,0-0.6,0.4-0.4c0-0.1,0-0.3,0-0.4c-0.4-0.1-0.7,0.3-0.8,0.5c0.1,0,0.2-0.1,0.2,0l-0.5,0.9c-0.2,0-0.2-0.2-0.1-0.3
						c-0.1,0.1-0.1,0.3-0.3,0.5c-0.1-0.3-0.3-0.5,0-0.8l-0.5,0.7c-0.1-0.1-0.5-0.1-0.5-0.2c-0.5,0.1-0.6,1.1-1.2,1.2
						c0,0.1,0,0.1-0.1,0.2c-0.5,0.2-1.1,0.2-1.5,0.9l-0.6-0.3c-0.4,0.4,0.8,0.3,0.2,0.9c-0.4,0.5-0.4-0.3-0.7-0.3
						c-0.1,0.4-0.3,1.1-1,1C12,46.1,12.2,46.1,12.3,46z M7.1,49.5c0.1-0.1,0.1-0.5,0.3-0.3C7.5,49.6,7.3,49.5,7.1,49.5z M7.2,52.3
						c0,0.1-0.2,0.2-0.4,0.1C6.9,52.3,7,52.3,7.2,52.3z M28.7,36.1L28.7,36.1C28.4,36.1,28.5,36.1,28.7,36.1z M29.2,35.9
						c0-0.1,0-0.1-0.1-0.1c0,0.1-0.1,0.2-0.2,0.2C29,36.1,29.1,36.1,29.2,35.9z M29.1,39.6l-0.1,0C29.1,39.4,29.1,39.5,29.1,39.6z"
						/>
					<path d="M6.5,53.3c-0.1,0-0.1-0.1-0.1-0.1C6.4,53.2,6.4,53.3,6.5,53.3z"/>
					<path d="M15.6,43.8L15.6,43.8C15.6,43.8,15.6,43.7,15.6,43.8L15.6,43.8z"/>
					<path d="M23.4,43.2c-0.1,0-0.2,0-0.3,0C23.1,43.2,23.2,43.2,23.4,43.2z"/>
					<path d="M31.5,33.8l-0.3,0.3c0.1-0.1,0.2-0.1,0.3-0.1C31.5,34,31.4,33.9,31.5,33.8z"/>
					<path d="M35.3,34.1c0-0.1,0.1-0.1,0.1-0.1l-0.1-0.1C35.2,34,35.1,34.2,35.3,34.1z"/>
					<path d="M32.4,34.7c0.2,0.2,0.3,0,0.5-0.1c0,0,0,0,0,0C32.7,34.2,32.6,34.4,32.4,34.7z"/>
					<path d="M33,34.5c0.1-0.1,0.1-0.1,0.2-0.1C33.1,34.2,33.1,34.4,33,34.5z"/>
					<path d="M29.8,35.4c0.1,0-0.1-0.4,0-0.3C29.6,34.7,29.3,35.9,29.8,35.4z"/>
					<polygon points="33.1,35.4 32.8,35.2 32.9,35.5 					"/>
					<path d="M31.2,36.2l0.4-0.1c0-0.1,0-0.1,0-0.2C31.4,36.1,31.2,36.2,31.2,36.2z"/>
					<path d="M31.7,36c0.1-0.1,0.2-0.1,0.2-0.2C31.9,35.8,31.7,35.9,31.7,36z"/>
					<polygon points="32.7,35.8 32.5,35.8 32.3,35.9 					"/>
					<path d="M27.5,38.5l-0.3,0.3c0,0.1,0.2,0.1,0.3,0C27.5,38.7,27.6,38.5,27.5,38.5z"/>
					<path d="M29.2,38.7c-0.1,0-0.2-0.1-0.3-0.1l0.2,0.4L29.2,38.7z"/>
					<path d="M28.1,39.4c0,0.1-0.4,0.7,0.1,0.3C28.2,39.6,28.5,39.3,28.1,39.4z"/>
					<polygon points="22.1,42.4 22.2,42.4 21.8,41.7 					"/>
					<path d="M18.1,47.1c0.5-0.1-0.1-0.5,0.4-0.5c0-0.2-0.4,0-0.4-0.2C17.9,46.7,17.7,46.7,18.1,47.1z"/>
					<path d="M18,46.4c0-0.1,0.1-0.1,0.1-0.2C18.1,46.3,18,46.4,18,46.4z"/>
					<polygon points="46.9,29.1 47.3,29.1 46.9,29 					"/>
					<path d="M47.1,28.3l0.3,0.4l-0.1-0.5C47.4,28.2,47.3,28.3,47.1,28.3z"/>
					<path d="M5.8,49.2l0,0.1c0.1,0.1,0.2,0,0.3,0L5.8,49.2z"/>
					<polygon points="9.8,47.1 9.8,47.1 10.1,47.4 					"/>
					<path d="M12.8,44.6c-0.1,0.1-0.2,0.2-0.4,0.3C12.7,44.7,13.2,45,12.8,44.6z"/>
				</g>
			</g>
		</g>
	</g>
</g>
</svg>
